<svg xmlns="http://www.w3.org/2000/svg" xmlns:xlink="http://www.w3.org/1999/xlink" width="1600" zoomAndPan="magnify" viewBox="0 0 1200 299.999988" height="400" preserveAspectRatio="xMidYMid meet" version="1.0"><defs><clipPath id="2a404586d2"><path d="M 16 12.523438 L 276 12.523438 L 276 287.773438 L 16 287.773438 Z M 16 12.523438 " clip-rule="nonzero"/></clipPath><clipPath id="0316f08f59"><path d="M 681 64.449219 L 717 64.449219 L 717 232 L 681 232 Z M 681 64.449219 " clip-rule="nonzero"/></clipPath><clipPath id="90d3c57b45"><path d="M 853 64.449219 L 889 64.449219 L 889 232 L 853 232 Z M 853 64.449219 " clip-rule="nonzero"/></clipPath><clipPath id="1d425715bd"><path d="M 903 107 L 1035 107 L 1035 235.449219 L 903 235.449219 Z M 903 107 " clip-rule="nonzero"/></clipPath></defs><g clip-path="url(#2a404586d2)"><path fill="#fffcfa" d="M 148.621094 25.214844 C 154.96875 25.214844 163.796875 29.136719 168.027344 30.800781 C 212.558594 48.285156 257.121094 89.4375 262.285156 135.15625 C 262.933594 140.964844 265.160156 151.289062 256.136719 151.316406 C 230.554688 147.566406 204.886719 143.589844 180.886719 134.113281 L 193.015625 141.640625 C 210.953125 150.160156 230.976562 151.964844 250.183594 156.335938 C 250.351562 156.363281 250.410156 156.648438 250.242188 156.730469 C 242.289062 160.933594 231.597656 162.9375 222.429688 163.867188 C 217.328125 164.375 212.164062 164.683594 207.003906 164.683594 C 192.507812 164.683594 178.125 162.257812 165.261719 155.207031 C 166.53125 175.234375 191.800781 171.171875 203.816406 181.496094 C 209.175781 186.089844 213.914062 196.921875 210.753906 203.070312 C 209.597656 205.296875 208.640625 206.171875 207.820312 206.171875 C 205 206.171875 203.789062 196.074219 202.6875 194.328125 C 202.011719 193.226562 197.1875 188.488281 195.75 188.488281 C 195.664062 188.488281 195.582031 188.488281 195.523438 188.546875 C 200.292969 192.382812 202.351562 208.910156 195.074219 209.671875 C 194.875 209.671875 194.679688 209.699219 194.507812 209.699219 C 191.125 209.699219 192.308594 205.863281 191.519531 203.746094 C 183.621094 182.707031 149.15625 183.074219 139.710938 165.53125 C 136.550781 159.664062 135.535156 151.710938 137.03125 145.449219 C 128.652344 150.582031 131.785156 160.339844 132.828125 168.125 C 122.109375 163.472656 115.988281 148.917969 103.46875 147.480469 C 102.734375 147.394531 101.972656 147.339844 101.183594 147.339844 C 91.507812 147.339844 80.171875 153.855469 75.65625 161.101562 C 82.144531 157.125 90.804688 153.910156 98.785156 153.910156 C 106.34375 153.910156 113.308594 156.789062 117.257812 164.65625 C 124.847656 179.691406 111.136719 184.0625 102.761719 192.296875 C 99.40625 195.597656 95.765625 204.140625 91.707031 204.140625 C 91.566406 204.140625 91.453125 204.140625 91.3125 204.140625 C 85.699219 203.378906 87.785156 195.652344 88.238281 191.988281 L 82.203125 199.65625 C 70.863281 227.46875 96.980469 255.359375 127.554688 255.359375 C 129.5 255.359375 131.445312 255.246094 133.390625 255.023438 C 167.574219 251.015625 166.050781 205.917969 138.101562 205.917969 C 136.664062 205.917969 135.140625 206.03125 133.5625 206.285156 C 116.1875 209.050781 116.921875 229.214844 133.109375 229.214844 C 133.136719 229.214844 133.164062 229.214844 133.222656 229.214844 C 141.542969 229.160156 141.597656 221.375 142.386719 220.839844 C 142.558594 220.726562 142.8125 220.667969 143.066406 220.667969 C 144.53125 220.667969 147.097656 222.136719 147.746094 223.574219 C 152.117188 233.417969 140.949219 243.289062 130.375 243.289062 C 130.316406 243.289062 130.234375 243.289062 130.175781 243.289062 C 90.804688 242.808594 95.9375 189.589844 137.058594 189.589844 C 137.734375 189.589844 138.410156 189.589844 139.117188 189.644531 C 192.535156 191.902344 195.382812 267.121094 136.269531 274.003906 C 132.660156 274.425781 129.132812 274.625 125.636719 274.625 C 79.042969 274.625 44.042969 238.242188 33.011719 197.824219 C 14.566406 130.136719 61.839844 55.957031 140.5 55.957031 C 141.035156 55.957031 141.570312 55.957031 142.105469 55.957031 C 143.347656 55.167969 139.457031 32.410156 142.332031 27.894531 C 143.601562 25.921875 145.886719 25.1875 148.621094 25.1875 M 148.621094 12.523438 C 138.609375 12.523438 133.671875 17.882812 131.644531 21.070312 C 128.316406 26.261719 128.175781 33.3125 128.90625 43.773438 C 93.960938 46.765625 63.53125 63.292969 42.292969 91.042969 C 18.515625 122.179688 10.449219 163.304688 20.714844 201.097656 C 32.027344 242.585938 69.652344 287.257812 125.578125 287.257812 C 129.585938 287.257812 133.644531 287.035156 137.679688 286.554688 C 176.65625 282.011719 193.410156 253.019531 192.480469 228.003906 C 192.394531 226.058594 192.226562 224.082031 191.941406 222.109375 C 193.210938 222.332031 194.144531 222.363281 194.480469 222.363281 C 195.101562 222.363281 195.75 222.332031 196.398438 222.25 C 199.753906 221.882812 202.773438 220.640625 205.253906 218.640625 C 206.074219 218.78125 206.917969 218.835938 207.820312 218.835938 C 211.96875 218.835938 217.804688 217.117188 222.035156 208.878906 C 227.394531 198.5 223.136719 185.5 216.875 177.066406 C 219.101562 176.925781 221.359375 176.726562 223.730469 176.503906 C 237.097656 175.148438 248.039062 172.273438 256.191406 167.957031 C 258.195312 166.886719 259.859375 165.332031 261.015625 163.5 C 264.878906 162.597656 268.261719 160.652344 270.773438 157.746094 C 277.0625 150.582031 275.820312 140.992188 275.089844 135.269531 C 275.03125 134.730469 274.949219 134.253906 274.890625 133.773438 C 272.183594 109.601562 259.800781 85.347656 239.101562 63.660156 C 220.851562 44.535156 197.246094 28.683594 172.679688 19.011719 C 172.199219 18.8125 171.664062 18.617188 171.070312 18.363281 C 163.796875 15.429688 156.066406 12.550781 148.648438 12.550781 Z M 148.621094 12.523438 " fill-opacity="1" fill-rule="nonzero"/></g><path fill="#fffcfa" d="M 325.882812 228.519531 L 325.882812 73.308594 C 325.882812 71.933594 326.996094 70.800781 328.390625 70.800781 L 354.671875 70.800781 C 355.988281 70.800781 357.066406 71.878906 357.066406 73.195312 L 357.066406 228.539062 C 357.066406 229.914062 355.953125 231.011719 354.597656 231.011719 L 328.390625 231.011719 C 326.996094 231.011719 325.882812 229.875 325.882812 228.503906 Z M 428.722656 229.785156 L 374.378906 160.378906 C 372.316406 157.738281 369.140625 156.199219 365.796875 156.199219 L 348.503906 156.199219 L 417.449219 71.5625 C 417.835938 71.078125 418.433594 70.800781 419.046875 70.800781 L 452.511719 70.800781 C 453.050781 70.800781 453.332031 71.414062 452.996094 71.839844 L 391.074219 147.617188 L 390.203125 132.257812 L 463.636719 225.882812 C 465.273438 227.964844 463.785156 231.027344 461.132812 231.027344 L 431.285156 231.027344 C 430.28125 231.027344 429.335938 230.5625 428.722656 229.785156 Z M 428.722656 229.785156 " fill-opacity="1" fill-rule="nonzero"/><path fill="#fffcfa" d="M 473.148438 228.355469 L 473.148438 112.609375 C 473.148438 112.179688 473.480469 111.847656 473.910156 111.847656 L 496.53125 111.847656 C 496.957031 111.847656 497.292969 112.179688 497.292969 112.609375 L 497.292969 162.234375 C 497.292969 162.660156 496.957031 162.996094 496.53125 162.996094 L 495.863281 162.996094 C 495.433594 162.996094 495.101562 162.644531 495.101562 162.214844 C 495.15625 150.550781 496.699219 140.765625 499.707031 132.816406 C 502.769531 124.699219 507.359375 118.550781 513.433594 114.371094 C 519.503906 110.195312 527.066406 108.113281 536.148438 108.113281 L 537.464844 108.113281 C 546.675781 108.113281 554.328125 110.195312 560.402344 114.371094 C 566.476562 118.53125 571.007812 124.679688 574.015625 132.816406 C 576.949219 140.765625 578.457031 150.570312 578.511719 162.214844 C 578.511719 162.644531 578.175781 162.996094 577.75 162.996094 L 571.601562 162.996094 C 571.175781 162.996094 570.839844 162.644531 570.839844 162.214844 C 570.914062 150.550781 572.476562 140.765625 575.558594 132.816406 C 578.695312 124.699219 583.304688 118.550781 589.375 114.371094 C 595.449219 110.195312 603.007812 108.113281 612.089844 108.113281 L 613.410156 108.113281 C 622.621094 108.113281 630.3125 110.195312 636.457031 114.371094 C 642.605469 118.53125 647.25 124.679688 650.386719 132.816406 C 653.527344 140.933594 655.105469 151 655.105469 162.996094 L 655.105469 230.265625 C 655.105469 230.695312 654.769531 231.027344 654.34375 231.027344 L 626.375 231.027344 C 625.390625 231.027344 624.589844 230.230469 624.589844 229.246094 L 624.589844 160.339844 C 624.589844 152.742188 622.640625 146.707031 618.777344 142.230469 C 614.894531 137.773438 609.527344 135.546875 602.636719 135.546875 C 595.746094 135.546875 589.988281 137.847656 585.734375 142.453125 C 581.484375 147.0625 579.367188 153.320312 579.367188 161.214844 L 579.367188 229.058594 C 579.367188 230.136719 578.492188 231.011719 577.414062 231.011719 L 550.835938 231.011719 C 549.742188 231.011719 548.851562 230.117188 548.851562 229.023438 L 548.851562 160.339844 C 548.851562 152.742188 546.917969 146.707031 543.035156 142.230469 C 539.15625 137.773438 533.789062 135.546875 526.898438 135.546875 C 520.007812 135.546875 514.25 137.847656 509.996094 142.453125 C 505.742188 147.0625 503.625 153.320312 503.625 161.214844 L 503.625 228.875 C 503.625 230.0625 502.660156 231.011719 501.488281 231.011719 L 475.804688 231.011719 C 474.316406 231.011719 473.128906 229.800781 473.128906 228.335938 Z M 473.148438 228.355469 " fill-opacity="1" fill-rule="nonzero"/><g clip-path="url(#0316f08f59)"><path fill="#fffcfa" d="M 698.769531 97.582031 C 692.769531 97.582031 688.351562 96.042969 685.492188 92.976562 C 682.628906 89.914062 681.21875 85.882812 681.21875 80.90625 C 681.21875 75.925781 682.648438 72.121094 685.492188 69.054688 C 688.351562 65.992188 692.769531 64.449219 698.769531 64.449219 C 704.769531 64.449219 709.152344 65.992188 711.9375 69.054688 C 714.722656 72.121094 716.117188 76.074219 716.117188 80.90625 C 716.117188 85.734375 714.722656 89.894531 711.9375 92.976562 C 709.152344 96.042969 704.769531 97.582031 698.769531 97.582031 Z M 683.410156 227.722656 L 683.410156 115.152344 C 683.410156 113.332031 684.878906 111.863281 686.699219 111.863281 L 710.621094 111.863281 C 712.441406 111.863281 713.90625 113.332031 713.90625 115.152344 L 713.90625 227.742188 C 713.90625 229.5625 712.441406 231.027344 710.621094 231.027344 L 686.699219 231.027344 C 684.878906 231.027344 683.410156 229.5625 683.410156 227.742188 Z M 683.410156 227.722656 " fill-opacity="1" fill-rule="nonzero"/></g><path fill="#fffcfa" d="M 740.464844 91.433594 L 740.464844 73.011719 C 740.464844 71.785156 741.449219 70.800781 742.675781 70.800781 L 768.769531 70.800781 C 769.996094 70.800781 770.980469 71.785156 770.980469 73.011719 L 770.980469 91.433594 C 770.980469 92.660156 769.996094 93.644531 768.769531 93.644531 L 742.675781 93.644531 C 741.449219 93.644531 740.464844 92.660156 740.464844 91.433594 Z M 740.464844 228.816406 L 740.464844 73.011719 C 740.464844 71.785156 741.449219 70.800781 742.675781 70.800781 L 768.769531 70.800781 C 769.996094 70.800781 770.980469 71.785156 770.980469 73.011719 L 770.980469 228.816406 C 770.980469 230.042969 769.996094 231.027344 768.769531 231.027344 L 742.675781 231.027344 C 741.449219 231.027344 740.464844 230.042969 740.464844 228.816406 Z M 740.464844 228.816406 " fill-opacity="1" fill-rule="nonzero"/><path fill="#fffcfa" d="M 798.542969 91.804688 L 798.542969 72.640625 C 798.542969 71.636719 799.359375 70.820312 800.363281 70.820312 L 825.992188 70.820312 C 826.996094 70.820312 827.8125 71.636719 827.8125 72.640625 L 827.8125 91.804688 C 827.8125 92.808594 826.996094 93.625 825.992188 93.625 L 800.363281 93.625 C 799.359375 93.625 798.542969 92.808594 798.542969 91.804688 Z M 797.300781 229.207031 L 797.300781 72.640625 C 797.300781 71.636719 798.117188 70.820312 799.121094 70.820312 L 825.976562 70.820312 C 826.976562 70.820312 827.796875 71.636719 827.796875 72.640625 L 827.796875 229.191406 C 827.796875 230.191406 826.976562 231.011719 825.976562 231.011719 L 799.121094 231.011719 C 798.117188 231.011719 797.300781 230.191406 797.300781 229.191406 Z M 797.300781 229.207031 " fill-opacity="1" fill-rule="nonzero"/><g clip-path="url(#90d3c57b45)"><path fill="#fffcfa" d="M 871.480469 97.582031 C 865.480469 97.582031 861.058594 96.042969 858.199219 92.976562 C 855.339844 89.914062 853.925781 85.882812 853.925781 80.90625 C 853.925781 75.925781 855.359375 72.121094 858.199219 69.054688 C 861.058594 65.992188 865.480469 64.449219 871.480469 64.449219 C 877.476562 64.449219 881.859375 65.992188 884.648438 69.054688 C 887.433594 72.121094 888.824219 76.074219 888.824219 80.90625 C 888.824219 85.734375 887.433594 89.894531 884.648438 92.976562 C 881.859375 96.042969 877.476562 97.582031 871.480469 97.582031 Z M 856.121094 132.910156 L 856.121094 113.609375 C 856.121094 112.644531 856.917969 111.847656 857.882812 111.847656 L 884.871094 111.847656 C 885.835938 111.847656 886.632812 112.644531 886.632812 113.609375 L 886.632812 132.910156 C 886.632812 133.875 885.835938 134.671875 884.871094 134.671875 L 857.882812 134.671875 C 856.917969 134.671875 856.121094 133.875 856.121094 132.910156 Z M 856.121094 229.265625 L 856.121094 113.609375 C 856.121094 112.644531 856.917969 111.847656 857.882812 111.847656 L 884.871094 111.847656 C 885.835938 111.847656 886.632812 112.644531 886.632812 113.609375 L 886.632812 229.265625 C 886.632812 230.230469 885.835938 231.027344 884.871094 231.027344 L 857.882812 231.027344 C 856.917969 231.027344 856.121094 230.230469 856.121094 229.265625 Z M 856.121094 229.265625 " fill-opacity="1" fill-rule="nonzero"/></g><path fill="#fffcfa" d="M 1052.769531 229.933594 L 1052.769531 112.941406 C 1052.769531 112.347656 1053.25 111.847656 1053.863281 111.847656 L 1075.816406 111.847656 C 1076.410156 111.847656 1076.914062 112.328125 1076.914062 112.941406 L 1076.914062 161.902344 C 1076.914062 162.496094 1076.429688 162.996094 1075.816406 162.996094 C 1075.203125 162.996094 1074.722656 162.496094 1074.722656 161.882812 C 1074.8125 150.238281 1076.429688 140.46875 1079.550781 132.59375 C 1082.761719 124.476562 1087.554688 118.367188 1093.925781 114.261719 C 1100.296875 110.175781 1108.226562 108.113281 1117.734375 108.113281 L 1119.054688 108.113281 C 1133.246094 108.113281 1143.996094 112.683594 1151.316406 121.839844 C 1158.632812 130.976562 1162.292969 144.628906 1162.292969 162.773438 L 1162.292969 229.933594 C 1162.292969 230.527344 1161.808594 231.027344 1161.195312 231.027344 L 1132.871094 231.027344 C 1132.277344 231.027344 1131.777344 230.546875 1131.777344 229.933594 L 1131.777344 160.136719 C 1131.777344 152.816406 1129.660156 146.894531 1125.40625 142.363281 C 1121.152344 137.828125 1115.453125 135.5625 1108.28125 135.5625 C 1101.113281 135.5625 1094.78125 137.90625 1090.175781 142.585938 C 1085.566406 147.265625 1083.265625 153.414062 1083.265625 161.027344 L 1083.265625 229.953125 C 1083.265625 230.546875 1082.78125 231.046875 1082.167969 231.046875 L 1053.84375 231.046875 C 1053.25 231.046875 1052.75 230.5625 1052.75 229.953125 Z M 1052.769531 229.933594 " fill-opacity="1" fill-rule="nonzero"/><g clip-path="url(#1d425715bd)"><path fill="#fffcfa" d="M 958.214844 108.003906 C 901.679688 114.800781 882.992188 194.199219 931.300781 224.769531 C 968.597656 248.375 1025.335938 231.679688 1033.433594 185.765625 C 1041.699219 138.851562 1005.054688 102.375 958.214844 108.003906 Z M 992.90625 196.277344 C 991.996094 197.375 986.613281 203.449219 985.292969 202.035156 C 987.503906 196.222656 991.238281 192.027344 992.371094 185.523438 C 994.28125 174.546875 990.027344 162.363281 979.871094 155.734375 C 960.3125 143.011719 945.378906 164.722656 961.539062 178.933594 C 966.125 182.960938 974.113281 184.316406 972.8125 193.734375 C 970.304688 211.785156 938.992188 200.847656 936.816406 180.992188 C 934.886719 163.292969 940.941406 144.535156 958.882812 137.996094 C 991.921875 125.960938 1014.304688 170.425781 992.925781 196.277344 Z M 992.90625 196.277344 " fill-opacity="1" fill-rule="nonzero"/></g></svg>