<svg xmlns="http://www.w3.org/2000/svg" xmlns:xlink="http://www.w3.org/1999/xlink" width="1600" zoomAndPan="magnify" viewBox="0 0 1200 299.999988" height="400" preserveAspectRatio="xMidYMid meet" version="1.0"><defs><clipPath id="4da8e6d551"><path d="M 16 12.523438 L 276 12.523438 L 276 287.773438 L 16 287.773438 Z M 16 12.523438 " clip-rule="nonzero"/></clipPath><clipPath id="f4aadc9deb"><path d="M 681 64.449219 L 717 64.449219 L 717 232 L 681 232 Z M 681 64.449219 " clip-rule="nonzero"/></clipPath><clipPath id="e270d55f3a"><path d="M 854 64.449219 L 889 64.449219 L 889 232 L 854 232 Z M 854 64.449219 " clip-rule="nonzero"/></clipPath><clipPath id="be337bb710"><path d="M 903 107 L 1035 107 L 1035 235.449219 L 903 235.449219 Z M 903 107 " clip-rule="nonzero"/></clipPath></defs><g clip-path="url(#4da8e6d551)"><path fill="#fe6634" d="M 148.621094 25.214844 C 154.96875 25.214844 163.796875 29.136719 168.027344 30.800781 C 212.558594 48.285156 257.121094 89.4375 262.285156 135.15625 C 262.933594 140.964844 265.160156 151.289062 256.136719 151.316406 C 230.554688 147.566406 204.886719 143.589844 180.886719 134.113281 L 193.015625 141.640625 C 210.953125 150.160156 230.976562 151.964844 250.183594 156.335938 C 250.351562 156.363281 250.410156 156.648438 250.242188 156.730469 C 242.289062 160.933594 231.597656 162.9375 222.429688 163.867188 C 217.328125 164.375 212.164062 164.683594 207.003906 164.683594 C 192.507812 164.683594 178.125 162.257812 165.261719 155.207031 C 166.53125 175.234375 191.800781 171.171875 203.816406 181.496094 C 209.175781 186.089844 213.914062 196.921875 210.753906 203.070312 C 209.597656 205.296875 208.640625 206.171875 207.820312 206.171875 C 205 206.171875 203.789062 196.074219 202.6875 194.328125 C 202.011719 193.226562 197.1875 188.488281 195.75 188.488281 C 195.664062 188.488281 195.582031 188.488281 195.523438 188.546875 C 200.292969 192.382812 202.351562 208.910156 195.074219 209.671875 C 194.875 209.671875 194.679688 209.699219 194.507812 209.699219 C 191.125 209.699219 192.308594 205.863281 191.519531 203.746094 C 183.621094 182.707031 149.15625 183.074219 139.710938 165.53125 C 136.550781 159.664062 135.535156 151.710938 137.03125 145.449219 C 128.652344 150.582031 131.785156 160.339844 132.828125 168.125 C 122.109375 163.472656 115.988281 148.917969 103.46875 147.480469 C 102.734375 147.394531 101.972656 147.339844 101.183594 147.339844 C 91.507812 147.339844 80.171875 153.855469 75.65625 161.101562 C 82.144531 157.125 90.804688 153.910156 98.785156 153.910156 C 106.34375 153.910156 113.308594 156.789062 117.257812 164.65625 C 124.847656 179.6875 111.136719 184.0625 102.761719 192.296875 C 99.40625 195.597656 95.765625 204.140625 91.707031 204.140625 C 91.566406 204.140625 91.453125 204.140625 91.3125 204.140625 C 85.699219 203.378906 87.785156 195.652344 88.238281 191.988281 L 82.203125 199.65625 C 70.863281 227.46875 96.980469 255.359375 127.554688 255.359375 C 129.5 255.359375 131.445312 255.246094 133.390625 255.023438 C 167.574219 251.015625 166.050781 205.917969 138.101562 205.917969 C 136.664062 205.917969 135.140625 206.03125 133.5625 206.285156 C 116.1875 209.050781 116.921875 229.214844 133.109375 229.214844 C 133.136719 229.214844 133.164062 229.214844 133.222656 229.214844 C 141.542969 229.160156 141.597656 221.375 142.386719 220.839844 C 142.558594 220.726562 142.8125 220.667969 143.066406 220.667969 C 144.53125 220.667969 147.097656 222.136719 147.746094 223.574219 C 152.117188 233.417969 140.949219 243.289062 130.375 243.289062 C 130.316406 243.289062 130.234375 243.289062 130.175781 243.289062 C 90.804688 242.808594 95.9375 189.589844 137.058594 189.589844 C 137.734375 189.589844 138.410156 189.589844 139.117188 189.644531 C 192.535156 191.902344 195.382812 267.121094 136.269531 274.003906 C 132.660156 274.425781 129.132812 274.625 125.636719 274.625 C 79.042969 274.625 44.042969 238.242188 33.011719 197.824219 C 14.566406 130.136719 61.839844 55.957031 140.5 55.957031 C 141.035156 55.957031 141.570312 55.957031 142.105469 55.957031 C 143.347656 55.167969 139.457031 32.410156 142.332031 27.894531 C 143.601562 25.921875 145.886719 25.1875 148.621094 25.1875 M 148.621094 12.523438 C 138.609375 12.523438 133.671875 17.882812 131.644531 21.070312 C 128.316406 26.257812 128.175781 33.3125 128.90625 43.773438 C 93.960938 46.765625 63.53125 63.292969 42.292969 91.042969 C 18.515625 122.179688 10.449219 163.304688 20.714844 201.097656 C 32.027344 242.585938 69.652344 287.257812 125.578125 287.257812 C 129.585938 287.257812 133.644531 287.035156 137.679688 286.554688 C 176.65625 282.011719 193.410156 253.019531 192.480469 228.003906 C 192.394531 226.058594 192.226562 224.082031 191.941406 222.109375 C 193.210938 222.332031 194.144531 222.363281 194.480469 222.363281 C 195.101562 222.363281 195.75 222.332031 196.398438 222.25 C 199.753906 221.882812 202.773438 220.640625 205.253906 218.640625 C 206.074219 218.78125 206.917969 218.835938 207.820312 218.835938 C 211.96875 218.835938 217.804688 217.117188 222.035156 208.878906 C 227.394531 198.5 223.136719 185.5 216.875 177.066406 C 219.101562 176.925781 221.359375 176.726562 223.730469 176.503906 C 237.097656 175.148438 248.039062 172.273438 256.191406 167.957031 C 258.195312 166.886719 259.859375 165.332031 261.015625 163.5 C 264.878906 162.597656 268.261719 160.652344 270.773438 157.746094 C 277.0625 150.582031 275.820312 140.992188 275.089844 135.269531 C 275.03125 134.730469 274.949219 134.253906 274.890625 133.773438 C 272.183594 109.601562 259.800781 85.347656 239.101562 63.660156 C 220.851562 44.535156 197.246094 28.683594 172.679688 19.011719 C 172.199219 18.8125 171.664062 18.617188 171.070312 18.363281 C 163.796875 15.429688 156.066406 12.550781 148.648438 12.550781 Z M 148.621094 12.523438 " fill-opacity="1" fill-rule="nonzero"/></g><path fill="#fe6634" d="M 325.882812 228.519531 L 325.882812 73.308594 C 325.882812 71.933594 327 70.800781 328.390625 70.800781 L 354.679688 70.800781 C 356 70.800781 357.078125 71.878906 357.078125 73.195312 L 357.078125 228.539062 C 357.078125 229.914062 355.960938 231.011719 354.605469 231.011719 L 328.390625 231.011719 C 327 231.011719 325.882812 229.875 325.882812 228.503906 Z M 428.75 229.785156 L 374.390625 160.378906 C 372.328125 157.738281 369.152344 156.199219 365.808594 156.199219 L 348.511719 156.199219 L 417.472656 71.5625 C 417.863281 71.078125 418.457031 70.800781 419.070312 70.800781 L 452.546875 70.800781 C 453.085938 70.800781 453.363281 71.414062 453.03125 71.839844 L 391.09375 147.617188 L 390.21875 132.257812 L 463.675781 225.882812 C 465.3125 227.964844 463.824219 231.027344 461.167969 231.027344 L 431.3125 231.027344 C 430.308594 231.027344 429.363281 230.5625 428.75 229.785156 Z M 428.75 229.785156 " fill-opacity="1" fill-rule="nonzero"/><path fill="#fe6634" d="M 473.1875 228.355469 L 473.1875 112.609375 C 473.1875 112.179688 473.523438 111.847656 473.949219 111.847656 L 496.578125 111.847656 C 497.003906 111.847656 497.339844 112.179688 497.339844 112.609375 L 497.339844 162.234375 C 497.339844 162.660156 497.003906 162.996094 496.578125 162.996094 L 495.910156 162.996094 C 495.480469 162.996094 495.148438 162.644531 495.148438 162.214844 C 495.203125 150.550781 496.746094 140.765625 499.753906 132.816406 C 502.820312 124.699219 507.40625 118.550781 513.484375 114.371094 C 519.558594 110.195312 527.117188 108.113281 536.203125 108.113281 L 537.523438 108.113281 C 546.738281 108.113281 554.390625 110.195312 560.464844 114.371094 C 566.542969 118.53125 571.074219 124.679688 574.082031 132.816406 C 577.019531 140.765625 578.523438 150.570312 578.578125 162.214844 C 578.578125 162.644531 578.246094 162.996094 577.816406 162.996094 L 571.667969 162.996094 C 571.242188 162.996094 570.90625 162.644531 570.90625 162.214844 C 570.980469 150.550781 572.542969 140.765625 575.625 132.816406 C 578.765625 124.699219 583.371094 118.550781 589.449219 114.371094 C 595.523438 110.195312 603.082031 108.113281 612.167969 108.113281 L 613.488281 108.113281 C 622.703125 108.113281 630.394531 110.195312 636.542969 114.371094 C 642.691406 118.53125 647.335938 124.679688 650.476562 132.816406 C 653.617188 140.933594 655.195312 151 655.195312 162.996094 L 655.195312 230.265625 C 655.195312 230.695312 654.859375 231.027344 654.433594 231.027344 L 626.453125 231.027344 C 625.46875 231.027344 624.671875 230.230469 624.671875 229.246094 L 624.671875 160.339844 C 624.671875 152.742188 622.71875 146.707031 618.855469 142.230469 C 614.972656 137.773438 609.605469 135.546875 602.710938 135.546875 C 595.820312 135.546875 590.0625 137.847656 585.804688 142.453125 C 581.550781 147.0625 579.433594 153.320312 579.433594 161.214844 L 579.433594 229.058594 C 579.433594 230.136719 578.5625 231.011719 577.484375 231.011719 L 550.898438 231.011719 C 549.800781 231.011719 548.910156 230.117188 548.910156 229.023438 L 548.910156 160.339844 C 548.910156 152.742188 546.980469 146.707031 543.097656 142.230469 C 539.214844 137.773438 533.84375 135.546875 526.953125 135.546875 C 520.058594 135.546875 514.300781 137.847656 510.046875 142.453125 C 505.792969 147.0625 503.675781 153.320312 503.675781 161.214844 L 503.675781 228.875 C 503.675781 230.0625 502.707031 231.011719 501.539062 231.011719 L 475.84375 231.011719 C 474.359375 231.011719 473.167969 229.800781 473.167969 228.335938 Z M 473.1875 228.355469 " fill-opacity="1" fill-rule="nonzero"/><g clip-path="url(#f4aadc9deb)"><path fill="#fe6634" d="M 698.871094 97.582031 C 692.871094 97.582031 688.449219 96.042969 685.589844 92.976562 C 682.726562 89.914062 681.316406 85.882812 681.316406 80.90625 C 681.316406 75.925781 682.746094 72.121094 685.589844 69.054688 C 688.449219 65.992188 692.871094 64.449219 698.871094 64.449219 C 704.871094 64.449219 709.257812 65.992188 712.042969 69.054688 C 714.828125 72.121094 716.222656 76.074219 716.222656 80.90625 C 716.222656 85.734375 714.828125 89.894531 712.042969 92.976562 C 709.257812 96.042969 704.871094 97.582031 698.871094 97.582031 Z M 683.507812 227.722656 L 683.507812 115.152344 C 683.507812 113.332031 684.976562 111.863281 686.796875 111.863281 L 710.722656 111.863281 C 712.542969 111.863281 714.011719 113.332031 714.011719 115.152344 L 714.011719 227.742188 C 714.011719 229.5625 712.542969 231.027344 710.722656 231.027344 L 686.796875 231.027344 C 684.976562 231.027344 683.507812 229.5625 683.507812 227.742188 Z M 683.507812 227.722656 " fill-opacity="1" fill-rule="nonzero"/></g><path fill="#fe6634" d="M 740.578125 91.433594 L 740.578125 73.011719 C 740.578125 71.785156 741.5625 70.800781 742.789062 70.800781 L 768.890625 70.800781 C 770.117188 70.800781 771.101562 71.785156 771.101562 73.011719 L 771.101562 91.433594 C 771.101562 92.660156 770.117188 93.644531 768.890625 93.644531 L 742.789062 93.644531 C 741.5625 93.644531 740.578125 92.660156 740.578125 91.433594 Z M 740.578125 228.816406 L 740.578125 73.011719 C 740.578125 71.785156 741.5625 70.800781 742.789062 70.800781 L 768.890625 70.800781 C 770.117188 70.800781 771.101562 71.785156 771.101562 73.011719 L 771.101562 228.816406 C 771.101562 230.042969 770.117188 231.027344 768.890625 231.027344 L 742.789062 231.027344 C 741.5625 231.027344 740.578125 230.042969 740.578125 228.816406 Z M 740.578125 228.816406 " fill-opacity="1" fill-rule="nonzero"/><path fill="#fe6634" d="M 798.671875 91.804688 L 798.671875 72.640625 C 798.671875 71.636719 799.488281 70.820312 800.492188 70.820312 L 826.128906 70.820312 C 827.132812 70.820312 827.949219 71.636719 827.949219 72.640625 L 827.949219 91.804688 C 827.949219 92.808594 827.132812 93.625 826.128906 93.625 L 800.492188 93.625 C 799.488281 93.625 798.671875 92.808594 798.671875 91.804688 Z M 797.425781 229.207031 L 797.425781 72.640625 C 797.425781 71.636719 798.242188 70.820312 799.246094 70.820312 L 826.109375 70.820312 C 827.113281 70.820312 827.929688 71.636719 827.929688 72.640625 L 827.929688 229.191406 C 827.929688 230.191406 827.113281 231.011719 826.109375 231.011719 L 799.246094 231.011719 C 798.242188 231.011719 797.425781 230.191406 797.425781 229.191406 Z M 797.425781 229.207031 " fill-opacity="1" fill-rule="nonzero"/><g clip-path="url(#e270d55f3a)"><path fill="#fe6634" d="M 871.625 97.582031 C 865.625 97.582031 861.203125 96.042969 858.34375 92.976562 C 855.480469 89.914062 854.070312 85.882812 854.070312 80.90625 C 854.070312 75.925781 855.5 72.121094 858.34375 69.054688 C 861.203125 65.992188 865.625 64.449219 871.625 64.449219 C 877.625 64.449219 882.011719 65.992188 884.796875 69.054688 C 887.585938 72.121094 888.976562 76.074219 888.976562 80.90625 C 888.976562 85.734375 887.585938 89.894531 884.796875 92.976562 C 882.011719 96.042969 877.625 97.582031 871.625 97.582031 Z M 856.261719 132.910156 L 856.261719 113.609375 C 856.261719 112.644531 857.0625 111.847656 858.027344 111.847656 L 885.019531 111.847656 C 885.988281 111.847656 886.785156 112.644531 886.785156 113.609375 L 886.785156 132.910156 C 886.785156 133.875 885.988281 134.671875 885.019531 134.671875 L 858.027344 134.671875 C 857.0625 134.671875 856.261719 133.875 856.261719 132.910156 Z M 856.261719 229.265625 L 856.261719 113.609375 C 856.261719 112.644531 857.0625 111.847656 858.027344 111.847656 L 885.019531 111.847656 C 885.988281 111.847656 886.785156 112.644531 886.785156 113.609375 L 886.785156 229.265625 C 886.785156 230.230469 885.988281 231.027344 885.019531 231.027344 L 858.027344 231.027344 C 857.0625 231.027344 856.261719 230.230469 856.261719 229.265625 Z M 856.261719 229.265625 " fill-opacity="1" fill-rule="nonzero"/></g><path fill="#fe6634" d="M 1052.964844 229.933594 L 1052.964844 112.941406 C 1052.964844 112.347656 1053.449219 111.847656 1054.058594 111.847656 L 1076.019531 111.847656 C 1076.613281 111.847656 1077.117188 112.328125 1077.117188 112.941406 L 1077.117188 161.902344 C 1077.117188 162.496094 1076.632812 162.996094 1076.019531 162.996094 C 1075.40625 162.996094 1074.921875 162.496094 1074.921875 161.882812 C 1075.015625 150.238281 1076.632812 140.46875 1079.753906 132.59375 C 1082.96875 124.476562 1087.761719 118.367188 1094.132812 114.261719 C 1100.503906 110.175781 1108.4375 108.113281 1117.949219 108.113281 L 1119.269531 108.113281 C 1133.460938 108.113281 1144.21875 112.683594 1151.539062 121.839844 C 1158.859375 130.976562 1162.519531 144.628906 1162.519531 162.773438 L 1162.519531 229.933594 C 1162.519531 230.527344 1162.035156 231.027344 1161.421875 231.027344 L 1133.089844 231.027344 C 1132.496094 231.027344 1131.996094 230.546875 1131.996094 229.933594 L 1131.996094 160.136719 C 1131.996094 152.816406 1129.875 146.894531 1125.621094 142.363281 C 1121.367188 137.828125 1115.664062 135.5625 1108.492188 135.5625 C 1101.324219 135.5625 1094.988281 137.90625 1090.378906 142.585938 C 1085.773438 147.265625 1083.46875 153.414062 1083.46875 161.027344 L 1083.46875 229.953125 C 1083.46875 230.546875 1082.984375 231.046875 1082.371094 231.046875 L 1054.042969 231.046875 C 1053.449219 231.046875 1052.945312 230.5625 1052.945312 229.953125 Z M 1052.964844 229.933594 " fill-opacity="1" fill-rule="nonzero"/><g clip-path="url(#be337bb710)"><path fill="#fe6634" d="M 958.382812 108.003906 C 901.832031 114.800781 883.144531 194.199219 931.464844 224.769531 C 968.769531 248.375 1025.523438 231.679688 1033.625 185.765625 C 1041.890625 138.851562 1005.238281 102.375 958.382812 108.003906 Z M 993.089844 196.277344 C 992.175781 197.375 986.789062 203.449219 985.472656 202.035156 C 987.683594 196.222656 991.417969 192.027344 992.550781 185.523438 C 994.460938 174.546875 990.207031 162.363281 980.046875 155.734375 C 960.484375 143.011719 945.546875 164.722656 961.710938 178.933594 C 966.296875 182.960938 974.289062 184.316406 972.988281 193.734375 C 970.480469 211.785156 939.15625 200.847656 936.984375 180.992188 C 935.050781 163.292969 941.105469 144.535156 959.054688 137.996094 C 992.101562 125.960938 1014.488281 170.425781 993.105469 196.277344 Z M 993.089844 196.277344 " fill-opacity="1" fill-rule="nonzero"/></g></svg>