<svg xmlns="http://www.w3.org/2000/svg" xmlns:xlink="http://www.w3.org/1999/xlink" width="1600" zoomAndPan="magnify" viewBox="0 0 1200 299.999988" height="400" preserveAspectRatio="xMidYMid meet" version="1.0"><defs><clipPath id="cec04558d9"><path d="M 1111.789062 30 L 1169.558594 30 L 1169.558594 87.769531 L 1111.789062 87.769531 Z M 1111.789062 30 " clip-rule="nonzero"/></clipPath><clipPath id="64c8d5b048"><path d="M 483 48.050781 L 528 48.050781 L 528 260 L 483 260 Z M 483 48.050781 " clip-rule="nonzero"/></clipPath><clipPath id="8fc67a7abf"><path d="M 702 48.050781 L 748 48.050781 L 748 260 L 702 260 Z M 702 48.050781 " clip-rule="nonzero"/></clipPath><clipPath id="93c0b66bcf"><path d="M 766 102 L 933 102 L 933 265.269531 L 766 265.269531 Z M 766 102 " clip-rule="nonzero"/></clipPath></defs><path fill="#fe6634" d="M 1146.207031 71.0625 L 1141.230469 63.929688 C 1140.914062 63.964844 1140.601562 63.964844 1140.289062 63.964844 L 1134.792969 63.964844 L 1134.792969 71.0625 L 1130.269531 71.0625 L 1130.269531 46.707031 L 1140.289062 46.707031 C 1146.691406 46.707031 1150.660156 49.980469 1150.660156 55.371094 C 1150.660156 59.058594 1148.78125 61.777344 1145.476562 63.0625 L 1151.078125 71.0625 Z M 1140.082031 50.535156 L 1134.792969 50.535156 L 1134.792969 60.242188 L 1140.082031 60.242188 C 1144.046875 60.242188 1146.101562 58.433594 1146.101562 55.371094 C 1146.101562 52.308594 1144.046875 50.535156 1140.082031 50.535156 Z M 1140.082031 50.535156 " fill-opacity="1" fill-rule="nonzero"/><g clip-path="url(#cec04558d9)"><path fill="#fe6634" d="M 1140.671875 87.773438 C 1136.773438 87.773438 1132.992188 87.007812 1129.429688 85.503906 C 1127.714844 84.773438 1126.085938 83.890625 1124.539062 82.847656 C 1122.996094 81.808594 1121.566406 80.628906 1120.246094 79.3125 C 1118.929688 77.996094 1117.75 76.5625 1116.710938 75.019531 C 1115.667969 73.476562 1114.785156 71.84375 1114.058594 70.128906 C 1112.550781 66.566406 1111.789062 62.785156 1111.789062 58.886719 C 1111.789062 54.988281 1112.550781 51.203125 1114.058594 47.640625 C 1114.785156 45.925781 1115.667969 44.296875 1116.710938 42.753906 C 1117.75 41.207031 1118.929688 39.777344 1120.246094 38.460938 C 1121.566406 37.144531 1122.996094 35.964844 1124.539062 34.921875 C 1126.085938 33.882812 1127.714844 32.996094 1129.429688 32.269531 C 1132.992188 30.765625 1136.773438 30 1140.671875 30 C 1144.574219 30 1148.355469 30.765625 1151.917969 32.269531 C 1153.632812 32.996094 1155.261719 33.882812 1156.808594 34.921875 C 1158.351562 35.964844 1159.78125 37.144531 1161.097656 38.460938 C 1162.417969 39.777344 1163.59375 41.207031 1164.636719 42.753906 C 1165.679688 44.296875 1166.5625 45.925781 1167.289062 47.640625 C 1168.796875 51.203125 1169.558594 54.988281 1169.558594 58.886719 C 1169.558594 62.785156 1168.796875 66.566406 1167.289062 70.128906 C 1166.5625 71.84375 1165.679688 73.476562 1164.636719 75.019531 C 1163.59375 76.5625 1162.417969 77.996094 1161.097656 79.3125 C 1159.78125 80.628906 1158.351562 81.808594 1156.808594 82.847656 C 1155.261719 83.890625 1153.632812 84.773438 1151.917969 85.503906 C 1148.355469 87.007812 1144.574219 87.773438 1140.671875 87.773438 Z M 1140.671875 32.539062 C 1126.148438 32.539062 1114.328125 44.359375 1114.328125 58.886719 C 1114.328125 73.414062 1126.144531 85.234375 1140.671875 85.234375 C 1155.203125 85.234375 1167.019531 73.414062 1167.019531 58.886719 C 1167.019531 44.359375 1155.199219 32.539062 1140.671875 32.539062 Z M 1140.671875 32.539062 " fill-opacity="1" fill-rule="nonzero"/></g><path fill="#fffcfa" d="M 32.160156 256.46875 L 32.160156 59.304688 C 32.160156 57.558594 33.578125 56.121094 35.347656 56.121094 L 68.730469 56.121094 C 70.40625 56.121094 71.773438 57.488281 71.773438 59.164062 L 71.773438 256.492188 C 71.773438 258.238281 70.359375 259.628906 68.636719 259.628906 L 35.347656 259.628906 C 33.578125 259.628906 32.160156 258.191406 32.160156 256.445312 Z M 162.792969 258.074219 L 93.761719 169.90625 C 91.144531 166.558594 87.109375 164.597656 82.863281 164.597656 L 60.898438 164.597656 L 148.472656 57.085938 C 148.96875 56.472656 149.722656 56.121094 150.503906 56.121094 L 193.015625 56.121094 C 193.699219 56.121094 194.054688 56.898438 193.628906 57.441406 L 114.972656 153.699219 L 113.863281 134.1875 L 207.148438 253.117188 C 209.226562 255.761719 207.335938 259.652344 203.964844 259.652344 L 166.050781 259.652344 C 164.777344 259.652344 163.574219 259.0625 162.792969 258.074219 Z M 162.792969 258.074219 " fill-opacity="1" fill-rule="nonzero"/><path fill="#fffcfa" d="M 219.226562 256.257812 L 219.226562 109.226562 C 219.226562 108.683594 219.652344 108.257812 220.195312 108.257812 L 248.929688 108.257812 C 249.472656 108.257812 249.898438 108.683594 249.898438 109.226562 L 249.898438 172.265625 C 249.898438 172.808594 249.472656 173.234375 248.929688 173.234375 L 248.082031 173.234375 C 247.539062 173.234375 247.113281 172.785156 247.113281 172.242188 C 247.183594 157.425781 249.144531 144.992188 252.964844 134.894531 C 256.859375 124.585938 262.6875 116.777344 270.402344 111.46875 C 278.117188 106.160156 287.71875 103.515625 299.253906 103.515625 L 300.929688 103.515625 C 312.632812 103.515625 322.351562 106.160156 330.066406 111.46875 C 337.78125 116.753906 343.539062 124.5625 347.359375 134.894531 C 351.085938 144.992188 353 157.449219 353.070312 172.242188 C 353.070312 172.785156 352.644531 173.234375 352.101562 173.234375 L 344.292969 173.234375 C 343.75 173.234375 343.324219 172.785156 343.324219 172.242188 C 343.421875 157.425781 345.402344 144.992188 349.316406 134.894531 C 353.304688 124.585938 359.15625 116.777344 366.871094 111.46875 C 374.585938 106.160156 384.1875 103.515625 395.726562 103.515625 L 397.398438 103.515625 C 409.101562 103.515625 418.871094 106.160156 426.679688 111.46875 C 434.488281 116.753906 440.386719 124.5625 444.375 134.894531 C 448.359375 145.207031 450.367188 157.992188 450.367188 173.234375 L 450.367188 258.6875 C 450.367188 259.230469 449.941406 259.652344 449.398438 259.652344 L 413.867188 259.652344 C 412.617188 259.652344 411.601562 258.640625 411.601562 257.386719 L 411.601562 169.859375 C 411.601562 160.210938 409.125 152.542969 404.21875 146.855469 C 399.289062 141.195312 392.46875 138.363281 383.714844 138.363281 C 374.964844 138.363281 367.648438 141.289062 362.246094 147.140625 C 356.84375 152.992188 354.15625 160.941406 354.15625 170.96875 L 354.15625 257.152344 C 354.15625 258.519531 353.046875 259.628906 351.675781 259.628906 L 317.917969 259.628906 C 316.523438 259.628906 315.390625 258.496094 315.390625 257.105469 L 315.390625 169.859375 C 315.390625 160.210938 312.9375 152.542969 308.007812 146.855469 C 303.078125 141.195312 296.257812 138.363281 287.503906 138.363281 C 278.753906 138.363281 271.4375 141.289062 266.035156 147.140625 C 260.632812 152.992188 257.945312 160.941406 257.945312 170.96875 L 257.945312 256.917969 C 257.945312 258.425781 256.71875 259.628906 255.230469 259.628906 L 222.601562 259.628906 C 220.714844 259.628906 219.203125 258.097656 219.203125 256.234375 Z M 219.226562 256.257812 " fill-opacity="1" fill-rule="nonzero"/><g clip-path="url(#64c8d5b048)"><path fill="#fffcfa" d="M 505.832031 90.140625 C 498.210938 90.140625 492.597656 88.183594 488.964844 84.289062 C 485.332031 80.394531 483.539062 75.277344 483.539062 68.953125 C 483.539062 62.628906 485.355469 57.792969 488.964844 53.902344 C 492.597656 50.007812 498.210938 48.050781 505.832031 48.050781 C 513.453125 48.050781 519.019531 50.007812 522.558594 53.902344 C 526.097656 57.792969 527.867188 62.820312 527.867188 68.953125 C 527.867188 75.085938 526.097656 80.371094 522.558594 84.289062 C 519.019531 88.183594 513.453125 90.140625 505.832031 90.140625 Z M 486.320312 255.453125 L 486.320312 112.457031 C 486.320312 110.148438 488.183594 108.28125 490.496094 108.28125 L 520.882812 108.28125 C 523.195312 108.28125 525.058594 110.148438 525.058594 112.457031 L 525.058594 255.476562 C 525.058594 257.789062 523.195312 259.652344 520.882812 259.652344 L 490.496094 259.652344 C 488.183594 259.652344 486.320312 257.789062 486.320312 255.476562 Z M 486.320312 255.453125 " fill-opacity="1" fill-rule="nonzero"/></g><path fill="#fffcfa" d="M 558.796875 82.332031 L 558.796875 58.925781 C 558.796875 57.371094 560.046875 56.121094 561.605469 56.121094 L 594.753906 56.121094 C 596.308594 56.121094 597.5625 57.371094 597.5625 58.925781 L 597.5625 82.332031 C 597.5625 83.886719 596.308594 85.136719 594.753906 85.136719 L 561.605469 85.136719 C 560.046875 85.136719 558.796875 83.886719 558.796875 82.332031 Z M 558.796875 256.847656 L 558.796875 58.925781 C 558.796875 57.371094 560.046875 56.121094 561.605469 56.121094 L 594.753906 56.121094 C 596.308594 56.121094 597.5625 57.371094 597.5625 58.925781 L 597.5625 256.847656 C 597.5625 258.402344 596.308594 259.652344 594.753906 259.652344 L 561.605469 259.652344 C 560.046875 259.652344 558.796875 258.402344 558.796875 256.847656 Z M 558.796875 256.847656 " fill-opacity="1" fill-rule="nonzero"/><path fill="#fffcfa" d="M 632.574219 82.800781 L 632.574219 58.453125 C 632.574219 57.179688 633.609375 56.144531 634.882812 56.144531 L 667.441406 56.144531 C 668.714844 56.144531 669.753906 57.179688 669.753906 58.453125 L 669.753906 82.800781 C 669.753906 84.078125 668.714844 85.113281 667.441406 85.113281 L 634.882812 85.113281 C 633.609375 85.113281 632.574219 84.078125 632.574219 82.800781 Z M 630.992188 257.339844 L 630.992188 58.453125 C 630.992188 57.179688 632.03125 56.144531 633.304688 56.144531 L 667.417969 56.144531 C 668.691406 56.144531 669.730469 57.179688 669.730469 58.453125 L 669.730469 257.316406 C 669.730469 258.59375 668.691406 259.628906 667.417969 259.628906 L 633.304688 259.628906 C 632.03125 259.628906 630.992188 258.59375 630.992188 257.316406 Z M 630.992188 257.339844 " fill-opacity="1" fill-rule="nonzero"/><g clip-path="url(#8fc67a7abf)"><path fill="#fffcfa" d="M 725.222656 90.140625 C 717.601562 90.140625 711.984375 88.183594 708.351562 84.289062 C 704.71875 80.394531 702.925781 75.277344 702.925781 68.953125 C 702.925781 62.628906 704.742188 57.792969 708.351562 53.902344 C 711.984375 50.007812 717.601562 48.050781 725.222656 48.050781 C 732.839844 48.050781 738.410156 50.007812 741.949219 53.902344 C 745.488281 57.792969 747.257812 62.820312 747.257812 68.953125 C 747.257812 75.085938 745.488281 80.371094 741.949219 84.289062 C 738.410156 88.183594 732.839844 90.140625 725.222656 90.140625 Z M 705.710938 135.011719 L 705.710938 110.5 C 705.710938 109.273438 706.722656 108.257812 707.949219 108.257812 L 742.230469 108.257812 C 743.457031 108.257812 744.472656 109.273438 744.472656 110.5 L 744.472656 135.011719 C 744.472656 136.238281 743.457031 137.253906 742.230469 137.253906 L 707.949219 137.253906 C 706.722656 137.253906 705.710938 136.238281 705.710938 135.011719 Z M 705.710938 257.414062 L 705.710938 110.5 C 705.710938 109.273438 706.722656 108.257812 707.949219 108.257812 L 742.230469 108.257812 C 743.457031 108.257812 744.472656 109.273438 744.472656 110.5 L 744.472656 257.414062 C 744.472656 258.640625 743.457031 259.652344 742.230469 259.652344 L 707.949219 259.652344 C 706.722656 259.652344 705.710938 258.640625 705.710938 257.414062 Z M 705.710938 257.414062 " fill-opacity="1" fill-rule="nonzero"/></g><path fill="#fffcfa" d="M 955.507812 258.261719 L 955.507812 109.652344 C 955.507812 108.894531 956.121094 108.257812 956.902344 108.257812 L 984.789062 108.257812 C 985.542969 108.257812 986.179688 108.871094 986.179688 109.652344 L 986.179688 171.839844 C 986.179688 172.597656 985.566406 173.234375 984.789062 173.234375 C 984.007812 173.234375 983.394531 172.597656 983.394531 171.816406 C 983.515625 157.023438 985.566406 144.617188 989.53125 134.613281 C 993.613281 124.300781 999.699219 116.539062 1007.789062 111.324219 C 1015.882812 106.136719 1025.957031 103.515625 1038.035156 103.515625 L 1039.710938 103.515625 C 1057.738281 103.515625 1071.398438 109.320312 1080.691406 120.953125 C 1089.988281 132.558594 1094.636719 149.898438 1094.636719 172.949219 L 1094.636719 258.261719 C 1094.636719 259.015625 1094.023438 259.652344 1093.242188 259.652344 L 1057.265625 259.652344 C 1056.511719 259.652344 1055.871094 259.039062 1055.871094 258.261719 L 1055.871094 169.601562 C 1055.871094 160.304688 1053.183594 152.777344 1047.78125 147.023438 C 1042.378906 141.265625 1035.136719 138.386719 1026.027344 138.386719 C 1016.921875 138.386719 1008.875 141.359375 1003.023438 147.304688 C 997.175781 153.25 994.25 161.058594 994.25 170.734375 L 994.25 258.285156 C 994.25 259.039062 993.636719 259.675781 992.855469 259.675781 L 956.878906 259.675781 C 956.121094 259.675781 955.484375 259.0625 955.484375 258.285156 Z M 955.507812 258.261719 " fill-opacity="1" fill-rule="nonzero"/><g clip-path="url(#93c0b66bcf)"><path fill="#fffcfa" d="M 835.398438 103.375 C 763.582031 112.011719 739.847656 212.871094 801.214844 251.703125 C 848.585938 281.6875 920.664062 260.480469 930.949219 202.15625 C 941.449219 142.5625 894.898438 96.226562 835.398438 103.375 Z M 879.46875 215.511719 C 878.3125 216.902344 871.472656 224.617188 869.796875 222.824219 C 872.605469 215.441406 877.347656 210.109375 878.785156 201.851562 C 881.214844 187.90625 875.8125 172.429688 862.90625 164.007812 C 838.066406 147.847656 819.097656 175.425781 839.621094 193.476562 C 845.449219 198.59375 855.59375 200.316406 853.941406 212.28125 C 850.757812 235.210938 810.980469 221.316406 808.21875 196.09375 C 805.765625 173.609375 813.457031 149.78125 836.25 141.476562 C 878.21875 126.191406 906.648438 182.671875 879.492188 215.511719 Z M 879.46875 215.511719 " fill-opacity="1" fill-rule="nonzero"/></g></svg>