<?xml version="1.0" encoding="UTF-8"?>
<svg id="Camada_2" data-name="Camada 2" xmlns="http://www.w3.org/2000/svg" xmlns:xlink="http://www.w3.org/1999/xlink" viewBox="0 0 515.08 385.28">
  <defs>
    <style>
      .cls-1 {
        fill: url(#Gradiente_sem_nome_242);
      }

      .cls-2 {
        fill: #fe6634;
      }

      .cls-3 {
        fill: url(#Gradiente_sem_nome_242-5);
      }

      .cls-4 {
        fill: url(#Gradiente_sem_nome_242-3);
      }

      .cls-5 {
        fill: url(#Gradiente_sem_nome_242-8);
      }

      .cls-6 {
        fill: url(#Gradiente_sem_nome_242-4);
      }

      .cls-7 {
        fill: url(#Gradiente_sem_nome_242-2);
      }

      .cls-8 {
        fill: url(#Gradiente_sem_nome_242-7);
      }

      .cls-9 {
        fill: url(#Gradiente_sem_nome_242-6);
      }
    </style>
    <linearGradient id="Gradiente_sem_nome_242" data-name="Gradiente sem nome 242" x1="76.87" y1="354.01" x2="129.3" y2="354.01" gradientUnits="userSpaceOnUse">
      <stop offset="0" stop-color="#fe6634"/>
      <stop offset="1" stop-color="#fe6634"/>
    </linearGradient>
    <linearGradient id="Gradiente_sem_nome_242-2" data-name="Gradiente sem nome 242" x1="136.97" y1="353.73" x2="189.19" y2="353.73" xlink:href="#Gradiente_sem_nome_242"/>
    <linearGradient id="Gradiente_sem_nome_242-3" data-name="Gradiente sem nome 242" x1="194.03" y1="343.51" x2="248.32" y2="343.51" xlink:href="#Gradiente_sem_nome_242"/>
    <linearGradient id="Gradiente_sem_nome_242-4" data-name="Gradiente sem nome 242" x1="258.98" y1="344.49" x2="321.74" y2="344.49" xlink:href="#Gradiente_sem_nome_242"/>
    <linearGradient id="Gradiente_sem_nome_242-5" data-name="Gradiente sem nome 242" x1="327.37" x2="379.81" xlink:href="#Gradiente_sem_nome_242"/>
    <linearGradient id="Gradiente_sem_nome_242-6" data-name="Gradiente sem nome 242" x1="389.14" y1="353.68" x2="447.34" y2="353.68" xlink:href="#Gradiente_sem_nome_242"/>
    <linearGradient id="Gradiente_sem_nome_242-7" data-name="Gradiente sem nome 242" x1="456.66" y1="343.51" x2="515.08" y2="343.51" xlink:href="#Gradiente_sem_nome_242"/>
    <linearGradient id="Gradiente_sem_nome_242-8" data-name="Gradiente sem nome 242" x1="0" y1="339.1" x2="74.51" y2="339.1" xlink:href="#Gradiente_sem_nome_242"/>
  </defs>
  <g id="Camada_1-2" data-name="Camada 1">
    <g>
      <path class="cls-1" d="M98.19,384.74c-4.28,0-8.01-.76-11.21-2.28-3.19-1.52-5.67-3.7-7.45-6.53-1.78-2.83-2.66-6.24-2.66-10.23,0-4.35,1.05-7.9,3.15-10.66,2.1-2.76,5.11-4.82,9.03-6.2,3.92-1.38,8.49-2.07,13.71-2.07h13.6v9.14h-13.82c-3.48,0-6.15.83-8,2.5-1.85,1.67-2.77,3.85-2.77,6.53s.92,4.86,2.77,6.53c1.85,1.67,4.51,2.5,8,2.5,2.1,0,4.04-.38,5.82-1.14,1.78-.76,3.25-2.07,4.4-3.92s1.81-4.37,1.96-7.56l3.7,4.24c-.36,4.13-1.36,7.61-2.99,10.44-1.63,2.83-3.88,4.99-6.74,6.47-2.86,1.49-6.36,2.23-10.5,2.23ZM117.23,383.22v-17.51h-2.5v-19.47c0-3.33-.84-5.86-2.5-7.56-1.67-1.7-4.21-2.56-7.61-2.56-1.81,0-3.99.04-6.53.11-2.54.07-5.1.16-7.67.27-2.57.11-4.88.24-6.91.38v-12.84c1.67-.14,3.54-.29,5.6-.44,2.07-.14,4.22-.23,6.47-.27,2.25-.04,4.35-.05,6.31-.05,6.09,0,11.15.8,15.18,2.39,4.02,1.6,7.07,4.12,9.14,7.56,2.06,3.45,3.1,7.92,3.1,13.44v36.55h-12.08Z"/>
      <path class="cls-7" d="M163.41,385.06c-8.13,0-14.49-1.72-19.1-5.17-4.61-3.44-7.05-8.21-7.34-14.31h13.7c.22,2.03,1.34,3.88,3.38,5.55,2.03,1.67,5.22,2.5,9.57,2.5,3.56,0,6.42-.65,8.59-1.96,2.18-1.31,3.26-3.08,3.26-5.33,0-1.89-.81-3.41-2.45-4.57-1.63-1.16-4.44-1.96-8.43-2.39l-5.11-.54c-6.67-.65-11.79-2.52-15.34-5.6-3.56-3.08-5.33-7.16-5.33-12.24,0-4.06,1.01-7.47,3.05-10.23,2.03-2.76,4.84-4.84,8.43-6.26,3.59-1.41,7.74-2.12,12.46-2.12,7.25,0,13.13,1.6,17.63,4.79,4.5,3.19,6.85,7.91,7.07,14.14h-13.6c-.21-2.1-1.25-3.88-3.1-5.33-1.85-1.45-4.55-2.18-8.1-2.18-3.19,0-5.66.62-7.4,1.85-1.74,1.23-2.61,2.83-2.61,4.79s.71,3.34,2.12,4.35c1.42,1.02,3.72,1.7,6.91,2.07l5.22.54c6.96.73,12.42,2.65,16.37,5.77,3.95,3.12,5.93,7.33,5.93,12.62,0,3.92-1.07,7.33-3.21,10.23-2.14,2.9-5.13,5.13-8.97,6.69-3.84,1.56-8.38,2.34-13.6,2.34Z"/>
      <path class="cls-4" d="M194.03,383.22v-79.41h15.12v46.34h-2.61c0-5.95.76-10.99,2.28-15.12,1.52-4.13,3.79-7.29,6.8-9.46,3.01-2.18,6.84-3.26,11.48-3.26h.66c6.74,0,11.86,2.32,15.34,6.96,3.48,4.64,5.22,11.39,5.22,20.23v33.72h-15.12v-35.14c0-3.7-1.09-6.65-3.26-8.87-2.17-2.21-4.97-3.32-8.38-3.32-3.7,0-6.69,1.21-8.97,3.64-2.28,2.43-3.43,5.6-3.43,9.52v34.16h-15.12Z"/>
      <path class="cls-6" d="M293.68,385.17c-4.86,0-9.14-1.03-12.84-3.1-3.7-2.07-6.6-5.08-8.7-9.03-2.1-3.95-3.26-8.76-3.48-14.41h2.29v24.59h-11.97v-79.41h15.12v39.82l-4.02,6.09c.29-6.09,1.5-11.17,3.64-15.23,2.14-4.06,5.02-7.11,8.65-9.14,3.63-2.03,7.72-3.05,12.29-3.05,4.06,0,7.76.76,11.1,2.29,3.33,1.52,6.2,3.64,8.59,6.36,2.39,2.72,4.22,5.89,5.49,9.52,1.27,3.63,1.9,7.58,1.9,11.86v2.28c0,4.28-.65,8.27-1.96,11.97-1.3,3.7-3.19,6.95-5.66,9.74-2.47,2.79-5.42,4.97-8.87,6.53-3.45,1.56-7.31,2.34-11.59,2.34ZM290.31,372.44c3.19,0,6.02-.82,8.49-2.45,2.47-1.63,4.37-3.86,5.71-6.69,1.34-2.83,2.01-6.09,2.01-9.79s-.69-6.94-2.07-9.74c-1.38-2.79-3.28-4.95-5.71-6.47-2.43-1.52-5.24-2.28-8.43-2.28-2.97,0-5.71.67-8.21,2.01-2.5,1.34-4.53,3.26-6.09,5.77-1.56,2.5-2.34,5.53-2.34,9.08v4.35c0,3.41.8,6.31,2.4,8.7,1.59,2.39,3.66,4.24,6.2,5.55,2.54,1.31,5.22,1.96,8.05,1.96Z"/>
      <path class="cls-3" d="M348.69,384.74c-4.28,0-8.01-.76-11.21-2.28-3.19-1.52-5.67-3.7-7.45-6.53-1.78-2.83-2.67-6.24-2.67-10.23,0-4.35,1.05-7.9,3.15-10.66,2.1-2.76,5.11-4.82,9.03-6.2,3.91-1.38,8.49-2.07,13.71-2.07h13.6v9.14h-13.82c-3.48,0-6.15.83-8,2.5-1.85,1.67-2.77,3.85-2.77,6.53s.92,4.86,2.77,6.53c1.85,1.67,4.51,2.5,8,2.5,2.1,0,4.04-.38,5.82-1.14,1.78-.76,3.25-2.07,4.4-3.92,1.16-1.85,1.81-4.37,1.96-7.56l3.7,4.24c-.36,4.13-1.36,7.61-2.99,10.44-1.63,2.83-3.88,4.99-6.74,6.47-2.86,1.49-6.36,2.23-10.5,2.23ZM367.73,383.22v-17.51h-2.5v-19.47c0-3.33-.84-5.86-2.5-7.56-1.67-1.7-4.21-2.56-7.61-2.56-1.81,0-3.99.04-6.53.11-2.54.07-5.1.16-7.67.27-2.58.11-4.88.24-6.91.38v-12.84c1.67-.14,3.54-.29,5.6-.44,2.07-.14,4.22-.23,6.47-.27,2.25-.04,4.35-.05,6.31-.05,6.09,0,11.15.8,15.18,2.39,4.02,1.6,7.07,4.12,9.14,7.56,2.06,3.45,3.1,7.92,3.1,13.44v36.55h-12.08Z"/>
      <path class="cls-9" d="M419.16,385.28c-5.08,0-9.5-.85-13.27-2.56-3.77-1.7-6.89-4.02-9.36-6.96-2.47-2.94-4.32-6.22-5.55-9.85-1.23-3.63-1.85-7.32-1.85-11.1v-2.07c0-3.99.63-7.81,1.91-11.48,1.27-3.66,3.15-6.92,5.66-9.79,2.5-2.86,5.62-5.15,9.36-6.85,3.74-1.7,8.07-2.56,13-2.56,5.22,0,9.86,1,13.93,2.99,4.06,2,7.3,4.77,9.74,8.32,2.43,3.55,3.79,7.69,4.08,12.4h-14.8c-.36-2.97-1.63-5.49-3.81-7.56-2.18-2.07-5.22-3.1-9.14-3.1-3.26,0-6,.8-8.21,2.39-2.21,1.6-3.86,3.79-4.95,6.58-1.09,2.79-1.63,6-1.63,9.63s.53,6.64,1.58,9.46c1.05,2.83,2.68,5.04,4.89,6.64,2.21,1.6,5.02,2.39,8.43,2.39,2.68,0,4.97-.47,6.85-1.41,1.89-.94,3.39-2.25,4.51-3.92,1.12-1.67,1.8-3.55,2.01-5.66h14.8c-.29,4.79-1.68,8.97-4.19,12.56-2.51,3.59-5.8,6.4-9.9,8.43-4.1,2.03-8.8,3.05-14.09,3.05Z"/>
      <path class="cls-8" d="M456.66,383.22v-79.41h15.12v79.41h-15.12ZM498.01,383.22l-19.8-27.63h-8.81l25.13-31.44h15.77l-23.17,29.05.32-7.62,27.63,37.64h-17.08Z"/>
      <path class="cls-5" d="M0,380.84v-83.48c0-.74.6-1.35,1.35-1.35h14.15c.71,0,1.29.58,1.29,1.29v83.55c0,.74-.6,1.33-1.33,1.33H1.35c-.75,0-1.35-.61-1.35-1.35h0ZM55.35,381.52l-29.25-37.33c-1.11-1.42-2.82-2.25-4.62-2.25h-9.31l37.11-45.52c.21-.26.53-.41.86-.41h18.01c.29,0,.44.33.26.56l-33.33,40.76-.47-8.26,39.53,50.35c.88,1.12.08,2.77-1.35,2.77h-16.06c-.54,0-1.05-.25-1.38-.67Z"/>
    </g>
    <path class="cls-2" d="M420.23,101.01L315.55.07c-1.86-.34-1.91.58-1.95,1.81-.14,4.38-.05,9.72-.12,14.19-.25,15,.43,30.12.11,45.13-.04,1.68-1.42,3.03-3.11,3.03h-19.13V3.98c0-1.71-1.38-3.09-3.09-3.09h-20.11c-1.7,0-3.08,1.37-3.09,3.06l-.55,59.42-.22,24.1c-.02,1.71,1.35,3.1,3.06,3.12l66.94.75c1.68.02,3.07-1.31,3.12-2.98l.88-25.4c.09-2.68,3.31-3.98,5.24-2.12l40.74,39.38c1.12,1.09,1.28,2.85.32,4.09-.56.73-1.24,1.38-1.72,1.89-10.96,11.81-31.08,33.93-43.11,43.16-.83.64-1.04,1.59-2.47,1.23v-28.99c0-1.71-1.38-3.09-3.09-3.09h-66.85c-1.71,0-3.09,1.38-3.09,3.09v51.61c.25,25.98-22.11,48.66-41.01,57.6-26.37,12.48-52.25,8.14-71.54-5.5,15.24,2.6,31.41,2.06,48.07-2.48,75.64-20.6,58.12-121.85-11.79-114.68-56.23,5.76-53.9,81.27-1.74,74.29,13.85-1.86,24.11-16.29,19.25-30.02-2.84-8.04-6.9-6.54-7.49-2.69-.19,1.22.43,11.43-10.38,13.07-21.19,3.23-25.91-24.03-3.78-31.1,41.01-13.12,55.33,49.78,10.9,66.76-21.89,8.37-52.73,5.4-74.44-34-.12.77-.25,1.57-.37,2.35-.47-13.14,2.57-26.88,10.13-40.1,10.09-17.65,34.89-36.18,55.82-36.18h49.02c1.71,0,3.09-1.38,3.09-3.09V3.16c0-1.71-1.38-3.09-3.09-3.09h-19.48c-.44,0,.44,0-3.67.14-.03,1.09-.03.79-.03,1.09v58.88c0,1.76-1.47,3.14-3.23,3.08-30.08-1.14-58.27,4.73-81.31,25.22-4.39,3.9-7.93,8.89-12.18,12.76-.5.46-.85,1.06-.96,1.73-.28,1.61-1.78,2.29-2.43,3.21-25.99,36.42-22.29,91.63,6.96,125.04,49.46,56.48,141.03,37.49,166.2-32.49,6.55-18.21,6.05-35.11,5.9-54.21l1.06-1.33h18.69c1.69,0,3.07,1.36,3.09,3.05l.79,60.36c-.03,2.56,1.65,2.75,2.43,1.95,13.54-13.85,27.31-27.2,41.06-40.69,1.64-1.61,4.21-5.04,6.57-7.4,1.17-1.17,1.96-2.08,3.28-3.29,1.15-1.05,1.57-2.06,3.28-3.29.96-.69.38-.9,2.46-1.65-.08-2.35,2.16-2.93,3.28-4.11,14.15-15.02,29-29.37,43.57-43.99l.6-1.53-.64-1.59Z"/>
  </g>
</svg>