<?xml version="1.0" encoding="UTF-8"?>
<svg id="Camada_2" data-name="Camada 2" xmlns="http://www.w3.org/2000/svg" xmlns:xlink="http://www.w3.org/1999/xlink" viewBox="0 0 895.95 153.79">
  <defs>
    <style>
      .cls-1 {
        fill: url(#Gradiente_sem_nome_242);
      }

      .cls-2 {
        fill: #fe6634;
      }

      .cls-3 {
        fill: url(#Gradiente_sem_nome_242-5);
      }

      .cls-4 {
        fill: url(#Gradiente_sem_nome_242-3);
      }

      .cls-5 {
        fill: url(#Gradiente_sem_nome_242-8);
      }

      .cls-6 {
        fill: url(#Gradiente_sem_nome_242-4);
      }

      .cls-7 {
        fill: url(#Gradiente_sem_nome_242-2);
      }

      .cls-8 {
        fill: url(#Gradiente_sem_nome_242-7);
      }

      .cls-9 {
        fill: url(#Gradiente_sem_nome_242-6);
      }
    </style>
    <linearGradient id="Gradiente_sem_nome_242" data-name="Gradiente sem nome 242" x1="326.28" y1="86.3" x2="394.44" y2="86.3" gradientUnits="userSpaceOnUse">
      <stop offset="0" stop-color="#fe6634"/>
      <stop offset="1" stop-color="#fe6634"/>
    </linearGradient>
    <linearGradient id="Gradiente_sem_nome_242-2" data-name="Gradiente sem nome 242" x1="404.41" y1="85.95" x2="472.29" y2="85.95" xlink:href="#Gradiente_sem_nome_242"/>
    <linearGradient id="Gradiente_sem_nome_242-3" data-name="Gradiente sem nome 242" x1="478.59" y1="72.65" x2="549.16" y2="72.65" xlink:href="#Gradiente_sem_nome_242"/>
    <linearGradient id="Gradiente_sem_nome_242-4" data-name="Gradiente sem nome 242" x1="563.01" y1="73.93" x2="644.61" y2="73.93" xlink:href="#Gradiente_sem_nome_242"/>
    <linearGradient id="Gradiente_sem_nome_242-5" data-name="Gradiente sem nome 242" x1="651.93" x2="720.09" xlink:href="#Gradiente_sem_nome_242"/>
    <linearGradient id="Gradiente_sem_nome_242-6" data-name="Gradiente sem nome 242" x1="732.22" y1="85.88" x2="807.88" y2="85.88" xlink:href="#Gradiente_sem_nome_242"/>
    <linearGradient id="Gradiente_sem_nome_242-7" data-name="Gradiente sem nome 242" x1="820" y1="72.65" x2="895.95" y2="72.65" xlink:href="#Gradiente_sem_nome_242"/>
    <linearGradient id="Gradiente_sem_nome_242-8" data-name="Gradiente sem nome 242" x1="226.35" y1="66.92" x2="323.22" y2="66.92" xlink:href="#Gradiente_sem_nome_242"/>
  </defs>
  <g id="Camada_1-2" data-name="Camada 1">
    <g>
      <path class="cls-1" d="M353.99,126.25c-5.56,0-10.42-.99-14.57-2.97-4.15-1.98-7.38-4.81-9.69-8.49-2.31-3.68-3.46-8.11-3.46-13.29,0-5.66,1.37-10.27,4.1-13.86,2.73-3.58,6.65-6.27,11.74-8.06,5.09-1.79,11.03-2.69,17.82-2.69h17.68v11.88h-17.96c-4.52,0-7.99,1.08-10.39,3.25-2.4,2.17-3.61,5-3.61,8.49s1.2,6.32,3.61,8.48c2.4,2.17,5.87,3.25,10.39,3.25,2.73,0,5.25-.49,7.57-1.48,2.31-.99,4.22-2.69,5.73-5.09,1.51-2.4,2.35-5.68,2.55-9.83l4.81,5.52c-.47,5.37-1.76,9.9-3.89,13.58-2.12,3.68-5.04,6.48-8.77,8.41-3.72,1.93-8.27,2.9-13.64,2.9ZM378.74,124.27v-22.77h-3.25v-25.31c0-4.33-1.09-7.61-3.25-9.83-2.17-2.21-5.47-3.32-9.9-3.32-2.36,0-5.19.05-8.49.14-3.3.1-6.62.21-9.97.35-3.35.14-6.34.31-8.98.49v-16.69c2.17-.19,4.6-.38,7.28-.57,2.69-.19,5.49-.3,8.41-.35,2.92-.05,5.66-.07,8.2-.07,7.92,0,14.49,1.04,19.73,3.11,5.23,2.07,9.19,5.35,11.88,9.83,2.68,4.48,4.03,10.3,4.03,17.47v47.52h-15.7Z"/>
      <path class="cls-7" d="M438.78,126.68c-10.56,0-18.84-2.24-24.82-6.72-5.99-4.48-9.17-10.68-9.54-18.6h17.81c.28,2.64,1.75,5.04,4.39,7.21,2.64,2.17,6.78,3.25,12.44,3.25,4.62,0,8.35-.85,11.17-2.55,2.83-1.7,4.24-4.01,4.24-6.93,0-2.45-1.06-4.43-3.18-5.94-2.12-1.51-5.78-2.54-10.96-3.11l-6.65-.71c-8.68-.85-15.32-3.27-19.94-7.28-4.62-4.01-6.93-9.31-6.93-15.91,0-5.28,1.32-9.71,3.96-13.29,2.64-3.58,6.29-6.29,10.96-8.13,4.67-1.84,10.06-2.76,16.19-2.76,9.43,0,17.06,2.08,22.91,6.22,5.85,4.15,8.91,10.28,9.19,18.38h-17.68c-.28-2.73-1.63-5.04-4.03-6.93-2.4-1.88-5.91-2.83-10.54-2.83-4.15,0-7.35.8-9.62,2.4-2.26,1.6-3.39,3.68-3.39,6.22s.92,4.34,2.76,5.66c1.84,1.32,4.83,2.22,8.98,2.69l6.79.71c9.05.94,16.14,3.44,21.28,7.5,5.14,4.05,7.7,9.52,7.7,16.4,0,5.09-1.39,9.52-4.17,13.29-2.79,3.77-6.67,6.67-11.67,8.7-5,2.03-10.89,3.04-17.68,3.04Z"/>
      <path class="cls-4" d="M478.59,124.27V21.04h19.66v60.25h-3.39c0-7.73.99-14.28,2.97-19.66,1.98-5.37,4.92-9.48,8.84-12.3,3.91-2.83,8.89-4.24,14.92-4.24h.85c8.77,0,15.41,3.02,19.94,9.05,4.53,6.03,6.79,14.8,6.79,26.3v43.84h-19.66v-45.68c0-4.81-1.41-8.65-4.24-11.53-2.83-2.87-6.46-4.31-10.89-4.31-4.81,0-8.7,1.58-11.67,4.74-2.97,3.16-4.46,7.28-4.46,12.37v44.41h-19.66Z"/>
      <path class="cls-6" d="M608.13,126.82c-6.32,0-11.88-1.34-16.69-4.03-4.81-2.69-8.58-6.6-11.31-11.74-2.73-5.14-4.24-11.38-4.53-18.74h2.97v31.96h-15.56V21.04h19.66v51.76l-5.23,7.92c.38-7.92,1.96-14.52,4.74-19.8,2.78-5.28,6.53-9.24,11.24-11.88,4.71-2.64,10.04-3.96,15.98-3.96,5.28,0,10.09.99,14.42,2.97,4.33,1.98,8.06,4.74,11.17,8.27,3.11,3.54,5.49,7.66,7.14,12.37,1.65,4.72,2.47,9.85,2.47,15.42v2.97c0,5.56-.85,10.75-2.55,15.56-1.69,4.81-4.15,9.03-7.35,12.66-3.21,3.63-7.05,6.46-11.53,8.49-4.48,2.03-9.5,3.04-15.06,3.04ZM603.74,110.27c4.15,0,7.82-1.06,11.03-3.18s5.68-5.02,7.43-8.7c1.74-3.68,2.62-7.92,2.62-12.73s-.9-9.03-2.69-12.66c-1.79-3.63-4.26-6.43-7.42-8.41-3.16-1.98-6.82-2.97-10.96-2.97-3.87,0-7.43.87-10.68,2.62-3.25,1.75-5.89,4.24-7.92,7.5-2.03,3.25-3.04,7.19-3.04,11.81v5.66c0,4.43,1.04,8.2,3.11,11.31,2.07,3.11,4.76,5.52,8.06,7.21,3.3,1.7,6.79,2.54,10.47,2.54Z"/>
      <path class="cls-3" d="M679.64,126.25c-5.56,0-10.42-.99-14.57-2.97-4.15-1.98-7.38-4.81-9.68-8.49-2.31-3.68-3.47-8.11-3.47-13.29,0-5.66,1.37-10.27,4.1-13.86,2.73-3.58,6.65-6.27,11.74-8.06,5.09-1.79,11.03-2.69,17.82-2.69h17.68v11.88h-17.96c-4.53,0-7.99,1.08-10.39,3.25-2.4,2.17-3.61,5-3.61,8.49s1.2,6.32,3.61,8.48c2.4,2.17,5.87,3.25,10.39,3.25,2.73,0,5.25-.49,7.57-1.48,2.31-.99,4.22-2.69,5.73-5.09,1.51-2.4,2.35-5.68,2.55-9.83l4.81,5.52c-.47,5.37-1.76,9.9-3.89,13.58-2.12,3.68-5.04,6.48-8.77,8.41-3.72,1.93-8.27,2.9-13.65,2.9ZM704.39,124.27v-22.77h-3.25v-25.31c0-4.33-1.09-7.61-3.25-9.83-2.17-2.21-5.47-3.32-9.9-3.32-2.36,0-5.19.05-8.49.14-3.3.1-6.62.21-9.97.35-3.35.14-6.34.31-8.98.49v-16.69c2.17-.19,4.6-.38,7.28-.57,2.69-.19,5.49-.3,8.41-.35,2.92-.05,5.66-.07,8.2-.07,7.92,0,14.49,1.04,19.73,3.11,5.23,2.07,9.19,5.35,11.88,9.83,2.68,4.48,4.03,10.3,4.03,17.47v47.52h-15.7Z"/>
      <path class="cls-9" d="M771.25,126.96c-6.6,0-12.35-1.11-17.25-3.32-4.91-2.21-8.96-5.23-12.16-9.05-3.21-3.82-5.61-8.08-7.21-12.8-1.6-4.71-2.4-9.52-2.4-14.42v-2.69c0-5.18.82-10.16,2.48-14.92,1.64-4.76,4.1-9,7.35-12.73,3.25-3.72,7.31-6.69,12.16-8.91,4.86-2.21,10.49-3.32,16.9-3.32,6.79,0,12.82,1.3,18.1,3.89,5.28,2.6,9.5,6.2,12.66,10.82,3.16,4.62,4.92,10,5.3,16.12h-19.23c-.47-3.86-2.12-7.14-4.95-9.83-2.83-2.69-6.79-4.03-11.88-4.03-4.24,0-7.8,1.04-10.68,3.11-2.88,2.08-5.02,4.93-6.43,8.56-1.42,3.63-2.12,7.8-2.12,12.52s.68,8.63,2.05,12.3c1.37,3.68,3.49,6.55,6.36,8.63,2.88,2.08,6.53,3.11,10.96,3.11,3.49,0,6.46-.61,8.91-1.84,2.45-1.22,4.41-2.92,5.87-5.09,1.46-2.17,2.34-4.62,2.62-7.35h19.23c-.38,6.22-2.19,11.67-5.44,16.33-3.26,4.67-7.54,8.32-12.87,10.96-5.33,2.64-11.43,3.96-18.31,3.96Z"/>
      <path class="cls-8" d="M820,124.27V21.04h19.66v103.24h-19.66ZM873.75,124.27l-25.74-35.92h-11.46l32.67-40.87h20.5l-30.12,37.76.42-9.9,35.92,48.93h-22.2Z"/>
      <path class="cls-5" d="M226.35,121.18V12.66c0-.96.78-1.75,1.75-1.75h18.39c.92,0,1.67.75,1.67,1.67v108.61c0,.96-.78,1.73-1.73,1.73h-18.34c-.98,0-1.75-.79-1.75-1.75h0ZM298.31,122.07l-38.03-48.53c-1.44-1.84-3.67-2.92-6.01-2.92h-12.1l48.24-59.18c.27-.34.69-.53,1.12-.53h23.42c.38,0,.57.43.34.73l-43.33,52.98-.61-10.74,51.38,65.46c1.14,1.46.11,3.6-1.75,3.6h-20.88c-.7,0-1.37-.32-1.79-.87Z"/>
    </g>
    <path class="cls-2" d="M189.68,58.77L128.78.04c-1.08-.2-1.11.34-1.14,1.05-.08,2.55-.03,5.65-.07,8.26-.14,8.73.25,17.52.07,26.26-.02.98-.83,1.76-1.81,1.76h-11.13V2.32c0-.99-.81-1.8-1.8-1.8h-11.7c-.99,0-1.79.8-1.8,1.78l-.32,34.57-.13,14.02c0,.99.79,1.8,1.78,1.82l38.95.44c.98.01,1.78-.76,1.82-1.74l.51-14.78c.05-1.56,1.93-2.31,3.05-1.23l23.7,22.91c.65.63.74,1.66.19,2.38-.32.42-.72.81-1,1.1-6.37,6.87-18.08,19.74-25.08,25.11-.48.37-.6.92-1.44.71v-16.87c0-.99-.81-1.8-1.8-1.8h-38.9c-.99,0-1.8.81-1.8,1.8v30.03c.14,15.11-12.86,28.31-23.86,33.51-15.34,7.26-30.4,4.74-41.62-3.2,8.87,1.51,18.27,1.2,27.97-1.44,44.01-11.98,33.81-70.89-6.86-66.72-32.71,3.35-31.36,47.28-1.01,43.22,8.06-1.08,14.03-9.48,11.2-17.46-1.65-4.68-4.02-3.8-4.36-1.56-.11.71.25,6.65-6.04,7.6-12.33,1.88-15.07-13.98-2.2-18.09,23.86-7.63,32.19,28.96,6.34,38.84-12.74,4.87-30.53,5.32-43.16-17.6-.22-.55-.29-.78-.3-.9-.28-7.64,1.44-15.55,5.83-23.25,5.87-10.27,20.3-21.05,32.48-21.05h28.52c.99,0,1.8-.81,1.8-1.8V1.84c0-.99-.81-1.8-1.8-1.8h-11.33c-.26,0,.26,0-2.13.08-.02.63-.02.46-.02.63v34.26c0,1.02-.85,1.83-1.88,1.79-17.5-.66-33.9,2.75-47.31,14.68-2.55,2.27-4.61,5.17-7.09,7.43-.29.27-.49.62-.56,1.01-.16.94-1.03,1.33-1.42,1.87-15.12,21.19-12.97,53.31,4.05,72.75,28.77,32.86,82.05,21.81,96.7-18.9,3.81-10.6,3.52-20.43,3.43-31.54l.62-.77h10.88c.98,0,1.79.79,1.8,1.78l.46,35.12c-.02,1.49.96,1.6,1.42,1.14,7.88-8.06,15.89-15.83,23.89-23.67.95-.94,2.45-2.93,3.82-4.31.68-.68,1.14-1.21,1.91-1.91.67-.61.91-1.2,1.91-1.91.56-.4.22-.52,1.43-.96-.04-1.37,1.26-1.7,1.91-2.39,8.23-8.74,16.87-17.09,25.35-25.6l.35-.89-.37-.93Z"/>
  </g>
</svg>