<svg xmlns="http://www.w3.org/2000/svg" xmlns:xlink="http://www.w3.org/1999/xlink" width="1080" zoomAndPan="magnify" viewBox="0 0 810 809.999993" height="1080" preserveAspectRatio="xMidYMid meet" version="1.0"><defs><clipPath id="7977d1dfbe"><path d="M 40 18.621094 L 770 18.621094 L 770 791.121094 L 40 791.121094 Z M 40 18.621094 " clip-rule="nonzero"/></clipPath></defs><g clip-path="url(#7977d1dfbe)"><path fill="#fffcfa" d="M 412.210938 54.304688 C 430.054688 54.304688 454.878906 65.328125 466.773438 70.007812 C 591.992188 119.175781 717.292969 234.882812 731.804688 363.433594 C 733.628906 379.769531 739.894531 408.792969 714.519531 408.875 C 642.589844 398.328125 570.421875 387.144531 502.933594 360.5 L 537.035156 381.671875 C 587.472656 405.621094 643.777344 410.699219 697.785156 422.992188 C 698.261719 423.070312 698.417969 423.863281 697.945312 424.101562 C 675.578125 435.917969 645.523438 441.546875 619.75 444.164062 C 605.394531 445.59375 590.882812 446.464844 576.371094 446.464844 C 535.609375 446.464844 495.164062 439.644531 459 419.816406 C 462.570312 476.125 533.625 464.703125 567.410156 493.730469 C 582.476562 506.65625 595.800781 537.109375 586.917969 554.398438 C 583.667969 560.660156 580.96875 563.121094 578.671875 563.121094 C 570.738281 563.121094 567.328125 534.730469 564.238281 529.8125 C 562.332031 526.71875 548.773438 513.398438 544.726562 513.398438 C 544.492188 513.398438 544.253906 513.398438 544.09375 513.554688 C 557.496094 524.339844 563.285156 570.8125 542.824219 572.953125 C 542.269531 572.953125 541.714844 573.035156 541.238281 573.035156 C 531.722656 573.035156 535.054688 562.25 532.832031 556.300781 C 510.628906 497.140625 413.71875 498.171875 387.152344 448.84375 C 378.269531 432.347656 375.414062 409.984375 379.617188 392.378906 C 356.0625 406.8125 364.867188 434.25 367.800781 456.140625 C 337.664062 443.054688 320.457031 402.132812 285.246094 398.089844 C 283.183594 397.851562 281.042969 397.691406 278.820312 397.691406 C 251.621094 397.691406 219.742188 416.011719 207.050781 436.394531 C 225.292969 425.210938 249.636719 416.171875 272.082031 416.171875 C 293.335938 416.171875 312.921875 424.257812 324.023438 446.386719 C 345.359375 488.652344 306.816406 500.945312 283.261719 524.101562 C 273.824219 533.382812 263.597656 557.410156 252.175781 557.410156 C 251.78125 557.410156 251.460938 557.410156 251.066406 557.410156 C 235.285156 555.269531 241.152344 533.539062 242.421875 523.230469 L 225.449219 544.800781 C 193.570312 622.996094 267.003906 701.425781 352.972656 701.425781 C 358.441406 701.425781 363.914062 701.109375 369.386719 700.476562 C 465.503906 689.214844 461.222656 562.40625 382.632812 562.40625 C 378.585938 562.40625 374.304688 562.722656 369.863281 563.4375 C 321.011719 571.210938 323.074219 627.910156 368.59375 627.910156 C 368.671875 627.910156 368.753906 627.910156 368.910156 627.910156 C 392.304688 627.753906 392.464844 605.867188 394.683594 604.359375 C 395.160156 604.042969 395.875 603.882812 396.589844 603.882812 C 400.710938 603.882812 407.929688 608.007812 409.753906 612.050781 C 422.046875 639.726562 390.640625 667.484375 360.902344 667.484375 C 360.742188 667.484375 360.503906 667.484375 360.347656 667.484375 C 249.636719 666.136719 264.070312 516.488281 379.695312 516.488281 C 381.601562 516.488281 383.503906 516.488281 385.484375 516.648438 C 535.6875 522.992188 543.699219 734.496094 377.476562 753.847656 C 367.324219 755.035156 357.414062 755.589844 347.578125 755.589844 C 216.570312 755.589844 118.152344 653.289062 87.144531 539.644531 C 35.28125 349.316406 168.191406 140.746094 389.371094 140.746094 C 390.878906 140.746094 392.386719 140.746094 393.890625 140.746094 C 397.382812 138.527344 386.4375 74.527344 394.527344 61.839844 C 398.09375 56.289062 404.519531 54.226562 412.210938 54.226562 M 412.210938 18.621094 C 384.058594 18.621094 370.179688 33.6875 364.46875 42.648438 C 355.113281 57.242188 354.714844 77.066406 356.777344 106.488281 C 258.519531 114.894531 172.953125 161.367188 113.234375 239.402344 C 46.382812 326.953125 23.703125 442.578125 52.566406 548.84375 C 84.367188 665.5 190.160156 791.121094 347.421875 791.121094 C 358.679688 791.121094 370.101562 790.484375 381.441406 789.136719 C 491.039062 776.367188 538.144531 694.84375 535.527344 624.5 C 535.292969 619.03125 534.816406 613.476562 534.023438 607.925781 C 537.589844 608.5625 540.207031 608.640625 541.160156 608.640625 C 542.90625 608.640625 544.726562 608.5625 546.550781 608.324219 C 555.988281 607.292969 564.476562 603.804688 571.453125 598.171875 C 573.753906 598.570312 576.132812 598.726562 578.671875 598.726562 C 590.328125 598.726562 606.746094 593.890625 618.640625 570.734375 C 633.707031 541.550781 621.734375 504.992188 604.128906 481.277344 C 610.390625 480.882812 616.738281 480.328125 623.398438 479.691406 C 660.988281 475.886719 691.757812 467.796875 714.675781 455.664062 C 720.308594 452.648438 724.988281 448.289062 728.238281 443.132812 C 739.101562 440.597656 748.617188 435.125 755.675781 426.957031 C 773.363281 406.8125 769.871094 379.847656 767.808594 363.75 C 767.652344 362.242188 767.414062 360.894531 767.253906 359.546875 C 759.640625 291.582031 724.828125 223.382812 666.617188 162.398438 C 615.308594 108.628906 548.929688 64.058594 479.859375 36.859375 C 478.507812 36.304688 477.003906 35.75 475.335938 35.035156 C 454.878906 26.789062 433.148438 18.699219 412.289062 18.699219 Z M 412.210938 18.621094 " fill-opacity="1" fill-rule="nonzero"/></g></svg>