<svg xmlns="http://www.w3.org/2000/svg" xmlns:xlink="http://www.w3.org/1999/xlink" width="1080" zoomAndPan="magnify" viewBox="0 0 810 809.999993" height="1080" preserveAspectRatio="xMidYMid meet" version="1.0"><defs><clipPath id="d7c2d24cb9"><path d="M 38.699219 38.699219 L 771.449219 38.699219 L 771.449219 771.449219 L 38.699219 771.449219 Z M 38.699219 38.699219 " clip-rule="nonzero"/></clipPath></defs><g clip-path="url(#d7c2d24cb9)"><path fill="#fe6634" d="M 405.121094 38.699219 C 202.769531 38.699219 38.699219 202.769531 38.699219 405.121094 C 38.699219 424.390625 40.175781 443.316406 43.042969 461.804688 C 42.261719 296.347656 170.214844 141.65625 363.363281 145.214844 C 366.835938 142.957031 356.246094 78.980469 364.40625 66.304688 C 376.300781 48.074219 419.789062 68.042969 436.804688 74.8125 C 561.980469 124.726562 687.074219 241.136719 700.875 369.789062 C 702.613281 386.109375 708.773438 415.1875 683.253906 415.1875 C 611.203125 404.164062 538.976562 392.617188 471.441406 365.535156 L 505.46875 386.890625 C 556.425781 411.371094 613.371094 416.664062 667.886719 429.511719 C 645.316406 441.664062 614.414062 447.308594 588.023438 449.824219 C 532.988281 455.035156 476.042969 451.648438 426.996094 424.5625 C 430.292969 480.902344 501.5625 469.878906 535.246094 499.046875 C 550.261719 512.066406 563.457031 542.625 554.429688 559.8125 C 540.105469 587.15625 535.765625 541.496094 531.859375 535.070312 C 529.777344 531.773438 514.671875 516.753906 511.71875 518.664062 C 525.089844 529.601562 530.644531 576.046875 510.15625 578.128906 C 498.613281 579.257812 502.519531 567.710938 500.175781 561.460938 C 478.296875 502.171875 381.074219 502.691406 354.769531 453.125 C 346.003906 436.628906 343.136719 414.234375 347.566406 396.613281 C 323.953125 410.933594 332.546875 438.453125 335.324219 460.328125 C 305.203125 447.132812 288.101562 406.074219 252.855469 401.820312 C 224.472656 398.433594 188.097656 417.792969 174.296875 439.753906 C 209.886719 418.226562 268.742188 404.773438 291.488281 450.347656 C 312.667969 492.710938 273.953125 504.773438 250.253906 527.867188 C 240.445312 537.414062 229.765625 562.589844 217.785156 560.855469 C 201.988281 558.597656 207.976562 536.980469 209.28125 526.652344 L 192.089844 548.09375 C 157.714844 630.996094 242.613281 714.9375 335.585938 704.609375 C 436.976562 693.324219 427.6875 553.648438 336.714844 567.625 C 287.582031 575.175781 289.492188 632.125 335.410156 632.125 C 358.851562 632.125 359.199219 610.160156 361.367188 608.773438 C 364.40625 606.773438 374.300781 611.722656 376.472656 616.585938 C 388.710938 644.535156 356.59375 672.230469 326.644531 671.707031 C 213.878906 669.710938 231.503906 515.191406 352.601562 521.007812 C 503.125 528.214844 509.984375 739.765625 343.3125 758.167969 C 332.632812 759.382812 322.128906 759.820312 311.800781 759.644531 C 341.488281 767.371094 372.652344 771.539062 404.773438 771.539062 C 607.121094 771.539062 771.191406 607.46875 771.191406 405.121094 C 771.191406 202.769531 607.46875 38.699219 405.121094 38.699219 Z M 405.121094 38.699219 " fill-opacity="1" fill-rule="nonzero"/></g></svg>