<svg xmlns="http://www.w3.org/2000/svg" xmlns:xlink="http://www.w3.org/1999/xlink" width="1080" zoomAndPan="magnify" viewBox="0 0 810 809.999993" height="1080" preserveAspectRatio="xMidYMid meet" version="1.0"><defs><clipPath id="9e98b91bc8"><path d="M 681 651 L 779.773438 651 L 779.773438 761 L 681 761 Z M 681 651 " clip-rule="nonzero"/></clipPath><clipPath id="9bf9bc2b34"><path d="M 547 650 L 665 650 L 665 764.820312 L 547 764.820312 Z M 547 650 " clip-rule="nonzero"/></clipPath><clipPath id="bab5d56c26"><path d="M 157 44.820312 L 653 44.820312 L 653 541 L 157 541 Z M 157 44.820312 " clip-rule="nonzero"/></clipPath></defs><path fill="#fe6634" d="M 31.191406 758.609375 L 31.191406 619.972656 C 31.191406 618.71875 32.171875 617.738281 33.425781 617.738281 L 56.933594 617.738281 C 58.132812 617.738281 59.0625 618.71875 59.0625 619.863281 L 59.0625 758.664062 C 59.0625 759.863281 58.082031 760.898438 56.824219 760.898438 L 33.425781 760.898438 C 32.171875 760.898438 31.191406 759.917969 31.191406 758.664062 Z M 123.152344 759.753906 L 74.550781 697.738281 C 72.699219 695.394531 69.863281 693.976562 66.863281 693.976562 L 51.425781 693.976562 L 113.0625 618.390625 C 113.386719 617.953125 113.933594 617.738281 114.480469 617.738281 L 144.425781 617.738281 C 144.914062 617.738281 145.1875 618.28125 144.859375 618.664062 L 89.496094 686.347656 L 88.734375 672.613281 L 154.40625 756.265625 C 155.878906 758.117188 154.515625 760.84375 152.167969 760.84375 L 125.496094 760.84375 C 124.625 760.84375 123.753906 760.40625 123.207031 759.699219 Z M 123.152344 759.753906 " fill-opacity="1" fill-rule="nonzero"/><path fill="#fe6634" d="M 162.859375 758.445312 L 162.859375 655.066406 C 162.859375 654.683594 163.1875 654.414062 163.515625 654.414062 L 183.75 654.414062 C 184.132812 654.414062 184.40625 654.738281 184.40625 655.066406 L 184.40625 699.371094 C 184.40625 699.753906 184.078125 700.027344 183.75 700.027344 L 183.152344 700.027344 C 182.769531 700.027344 182.441406 699.699219 182.441406 699.316406 C 182.496094 688.910156 183.859375 680.132812 186.585938 673.050781 C 189.316406 665.800781 193.40625 660.296875 198.859375 656.59375 C 204.316406 652.886719 211.078125 650.980469 219.152344 650.980469 L 220.351562 650.980469 C 228.585938 650.980469 235.40625 652.832031 240.859375 656.59375 C 246.3125 660.296875 250.351562 665.800781 253.023438 673.050781 C 255.640625 680.132812 257.003906 688.910156 257.058594 699.316406 C 257.058594 699.699219 256.730469 700.027344 256.351562 700.027344 L 250.839844 700.027344 C 250.460938 700.027344 250.132812 699.699219 250.132812 699.316406 C 250.1875 688.910156 251.605469 680.132812 254.332031 673.050781 C 257.167969 665.800781 261.257812 660.296875 266.714844 656.59375 C 272.167969 652.886719 278.933594 650.980469 287.003906 650.980469 L 288.203125 650.980469 C 296.441406 650.980469 303.3125 652.832031 308.820312 656.59375 C 314.332031 660.296875 318.476562 665.800781 321.257812 673.050781 C 324.09375 680.296875 325.457031 689.289062 325.457031 700.027344 L 325.457031 760.132812 C 325.457031 760.515625 325.132812 760.789062 324.804688 760.789062 L 299.769531 760.789062 C 298.894531 760.789062 298.1875 760.082031 298.1875 759.207031 L 298.1875 697.683594 C 298.1875 690.871094 296.441406 685.476562 293.003906 681.496094 C 289.511719 677.519531 284.714844 675.503906 278.605469 675.503906 C 272.496094 675.503906 267.257812 677.574219 263.496094 681.660156 C 259.675781 685.800781 257.824219 691.359375 257.824219 698.445312 L 257.824219 759.042969 C 257.824219 760.027344 257.058594 760.789062 256.078125 760.789062 L 232.296875 760.789062 C 231.3125 760.789062 230.550781 759.972656 230.550781 759.042969 L 230.550781 697.683594 C 230.550781 690.871094 228.804688 685.476562 225.367188 681.496094 C 221.878906 677.519531 217.078125 675.503906 210.96875 675.503906 C 204.859375 675.503906 199.625 677.574219 195.859375 681.660156 C 192.042969 685.800781 190.1875 691.359375 190.1875 698.445312 L 190.1875 758.882812 C 190.1875 759.917969 189.316406 760.789062 188.277344 760.789062 L 165.316406 760.789062 C 164.007812 760.789062 162.914062 759.699219 162.914062 758.390625 Z M 162.859375 758.445312 " fill-opacity="1" fill-rule="nonzero"/><path fill="#fe6634" d="M 364.621094 641.660156 C 359.277344 641.660156 355.292969 640.296875 352.730469 637.519531 C 350.167969 634.792969 348.914062 631.199219 348.914062 626.730469 C 348.914062 622.261719 350.167969 618.882812 352.730469 616.15625 C 355.292969 613.429688 359.222656 612.015625 364.621094 612.015625 C 370.019531 612.015625 373.894531 613.378906 376.402344 616.15625 C 378.914062 618.882812 380.113281 622.421875 380.113281 626.730469 C 380.113281 631.035156 378.859375 634.792969 376.402344 637.519531 C 373.894531 640.242188 369.964844 641.660156 364.621094 641.660156 Z M 350.875 757.898438 L 350.875 657.300781 C 350.875 655.667969 352.183594 654.359375 353.820312 654.359375 L 375.203125 654.359375 C 376.839844 654.359375 378.148438 655.667969 378.148438 657.300781 L 378.148438 757.898438 C 378.148438 759.535156 376.839844 760.84375 375.203125 760.84375 L 353.820312 760.84375 C 352.183594 760.84375 350.875 759.535156 350.875 757.898438 Z M 350.875 757.898438 " fill-opacity="1" fill-rule="nonzero"/><path fill="#fe6634" d="M 401.929688 636.15625 L 401.929688 619.699219 C 401.929688 618.609375 402.800781 617.738281 403.894531 617.738281 L 427.238281 617.738281 C 428.328125 617.738281 429.203125 618.609375 429.203125 619.699219 L 429.203125 636.15625 C 429.203125 637.246094 428.328125 638.117188 427.238281 638.117188 L 403.894531 638.117188 C 402.800781 638.117188 401.929688 637.246094 401.929688 636.15625 Z M 401.929688 758.882812 L 401.929688 619.699219 C 401.929688 618.609375 402.800781 617.738281 403.894531 617.738281 L 427.238281 617.738281 C 428.328125 617.738281 429.203125 618.609375 429.203125 619.699219 L 429.203125 758.882812 C 429.203125 759.972656 428.328125 760.84375 427.238281 760.84375 L 403.894531 760.84375 C 402.800781 760.84375 401.929688 759.972656 401.929688 758.882812 Z M 401.929688 758.882812 " fill-opacity="1" fill-rule="nonzero"/><path fill="#fe6634" d="M 453.855469 636.484375 L 453.855469 619.371094 C 453.855469 618.445312 454.566406 617.738281 455.492188 617.738281 L 478.402344 617.738281 C 479.328125 617.738281 480.039062 618.445312 480.039062 619.371094 L 480.039062 636.484375 C 480.039062 637.410156 479.328125 638.117188 478.402344 638.117188 L 455.492188 638.117188 C 454.566406 638.117188 453.855469 637.410156 453.855469 636.484375 Z M 452.710938 759.207031 L 452.710938 619.316406 C 452.710938 618.390625 453.421875 617.683594 454.347656 617.683594 L 478.347656 617.683594 C 479.273438 617.683594 479.984375 618.390625 479.984375 619.316406 L 479.984375 759.207031 C 479.984375 760.132812 479.273438 760.84375 478.347656 760.84375 L 454.347656 760.84375 C 453.421875 760.84375 452.710938 760.132812 452.710938 759.207031 Z M 452.710938 759.207031 " fill-opacity="1" fill-rule="nonzero"/><path fill="#fe6634" d="M 519.039062 641.660156 C 513.691406 641.660156 509.710938 640.296875 507.148438 637.519531 C 504.582031 634.792969 503.328125 631.199219 503.328125 626.730469 C 503.328125 622.261719 504.582031 618.882812 507.148438 616.15625 C 509.710938 613.429688 513.636719 612.015625 519.039062 612.015625 C 524.4375 612.015625 528.308594 613.378906 530.820312 616.15625 C 533.328125 618.882812 534.527344 622.421875 534.527344 626.730469 C 534.527344 631.035156 533.273438 634.792969 530.820312 637.519531 C 528.308594 640.242188 524.382812 641.660156 519.039062 641.660156 Z M 505.347656 673.214844 L 505.347656 655.992188 C 505.347656 655.121094 506.054688 654.414062 506.929688 654.414062 L 531.039062 654.414062 C 531.910156 654.414062 532.617188 655.121094 532.617188 655.992188 L 532.617188 673.214844 C 532.617188 674.085938 531.910156 674.792969 531.039062 674.792969 L 506.929688 674.792969 C 506.054688 674.792969 505.347656 674.085938 505.347656 673.214844 Z M 505.347656 759.261719 L 505.347656 655.9375 C 505.347656 655.066406 506.054688 654.359375 506.929688 654.359375 L 531.039062 654.359375 C 531.910156 654.359375 532.617188 655.066406 532.617188 655.9375 L 532.617188 759.261719 C 532.617188 760.132812 531.910156 760.84375 531.039062 760.84375 L 506.929688 760.84375 C 506.054688 760.84375 505.347656 760.132812 505.347656 759.261719 Z M 505.347656 759.261719 " fill-opacity="1" fill-rule="nonzero"/><g clip-path="url(#9e98b91bc8)"><path fill="#fe6634" d="M 681.144531 759.863281 L 681.144531 655.339844 C 681.144531 654.792969 681.582031 654.359375 682.125 654.359375 L 701.761719 654.359375 C 702.308594 654.359375 702.742188 654.792969 702.742188 655.339844 L 702.742188 699.097656 C 702.742188 699.644531 702.308594 700.082031 701.761719 700.082031 C 701.214844 700.082031 700.78125 699.644531 700.78125 699.097656 C 700.890625 688.691406 702.308594 679.972656 705.089844 672.941406 C 707.980469 665.691406 712.234375 660.242188 717.960938 656.59375 C 723.632812 652.941406 730.726562 651.089844 739.234375 651.089844 L 740.433594 651.089844 C 753.144531 651.089844 762.742188 655.175781 769.289062 663.351562 C 775.832031 671.523438 779.105469 683.730469 779.105469 699.917969 L 779.105469 759.917969 C 779.105469 760.460938 778.671875 760.898438 778.125 760.898438 L 752.816406 760.898438 C 752.269531 760.898438 751.835938 760.460938 751.835938 759.917969 L 751.835938 697.574219 C 751.835938 691.035156 749.925781 685.746094 746.160156 681.714844 C 742.34375 677.683594 737.269531 675.613281 730.835938 675.613281 C 724.398438 675.613281 718.78125 677.683594 714.636719 681.878906 C 710.488281 686.074219 708.472656 691.578125 708.472656 698.335938 L 708.472656 759.917969 C 708.472656 760.460938 708.035156 760.898438 707.488281 760.898438 L 682.179688 760.898438 C 681.636719 760.898438 681.199219 760.460938 681.199219 759.917969 Z M 681.144531 759.863281 " fill-opacity="1" fill-rule="nonzero"/></g><g clip-path="url(#9bf9bc2b34)"><path fill="#fe6634" d="M 596.601562 650.925781 C 546.035156 656.972656 529.347656 727.925781 572.546875 755.230469 C 605.871094 776.320312 656.652344 761.386719 663.855469 720.351562 C 671.273438 678.445312 638.492188 645.855469 596.601562 650.871094 Z M 627.636719 729.78125 C 626.816406 730.761719 622.019531 736.210938 620.816406 734.902344 C 622.78125 729.726562 626.164062 725.964844 627.144531 720.132812 C 628.835938 710.324219 625.074219 699.425781 615.964844 693.539062 C 598.453125 682.207031 585.144531 701.550781 599.546875 714.25 C 603.636719 717.847656 610.78125 719.042969 609.636719 727.492188 C 607.398438 743.621094 579.363281 733.867188 577.453125 716.101562 C 575.710938 700.296875 581.164062 683.511719 597.199219 677.683594 C 626.761719 666.945312 646.78125 706.675781 627.636719 729.726562 Z M 627.636719 729.78125 " fill-opacity="1" fill-rule="nonzero"/></g><g clip-path="url(#bab5d56c26)"><path fill="#fe6634" d="M 405.148438 44.820312 C 268.1875 44.820312 157.1875 155.71875 157.1875 292.558594 C 157.1875 305.585938 158.222656 318.390625 160.132812 330.871094 C 159.585938 218.992188 246.203125 114.414062 376.894531 116.808594 C 379.292969 115.285156 372.039062 72.015625 377.601562 63.457031 C 385.621094 51.144531 415.074219 64.65625 426.585938 69.234375 C 511.347656 103.023438 595.945312 181.714844 605.328125 268.691406 C 606.527344 279.753906 610.671875 299.371094 593.4375 299.371094 C 544.671875 291.960938 495.800781 284.113281 450.09375 265.800781 L 473.164062 280.242188 C 507.636719 296.757812 546.199219 300.351562 583.074219 309.070312 C 567.800781 317.300781 546.910156 321.117188 529.019531 322.804688 C 491.765625 326.347656 453.203125 324.058594 420.09375 305.691406 C 422.328125 343.785156 470.546875 336.375 493.347656 356.101562 C 503.492188 364.875 512.4375 385.585938 506.328125 397.191406 C 496.621094 415.667969 493.730469 384.820312 491 380.40625 C 489.636719 378.171875 479.382812 368.035156 477.367188 369.34375 C 486.417969 376.703125 490.183594 408.144531 476.273438 409.507812 C 468.476562 410.269531 471.09375 402.476562 469.566406 398.226562 C 454.730469 358.171875 388.949219 358.445312 371.113281 324.984375 C 365.167969 313.8125 363.257812 298.664062 366.203125 286.785156 C 350.222656 296.429688 356.058594 315.066406 357.96875 329.835938 C 337.566406 320.898438 326.003906 293.105469 302.167969 290.269531 C 282.96875 287.925781 258.367188 301.0625 249.042969 315.9375 C 273.148438 301.386719 312.96875 292.289062 328.402344 323.132812 C 342.695312 351.796875 316.566406 359.972656 300.476562 375.558594 C 293.824219 381.988281 286.566406 399.042969 278.550781 397.902344 C 267.859375 396.375 271.894531 381.714844 272.824219 374.738281 L 261.203125 389.234375 C 237.914062 445.3125 295.402344 502.042969 358.292969 495.066406 C 426.910156 487.4375 420.640625 392.996094 359.058594 402.421875 C 325.839844 407.492188 327.09375 446.019531 358.183594 446.019531 C 374.058594 446.019531 374.277344 431.199219 375.75 430.214844 C 377.820312 428.855469 384.53125 432.179688 385.949219 435.503906 C 394.238281 454.414062 372.476562 473.160156 352.183594 472.777344 C 275.878906 471.414062 287.769531 366.945312 369.75 370.871094 C 471.636719 375.71875 476.273438 518.828125 363.476562 531.25 C 356.222656 532.070312 349.128906 532.34375 342.148438 532.234375 C 362.222656 537.464844 383.332031 540.296875 405.039062 540.296875 C 542 540.296875 653 429.398438 653 292.558594 C 653 155.71875 542.109375 44.820312 405.148438 44.820312 Z M 405.148438 44.820312 " fill-opacity="1" fill-rule="nonzero"/></g></svg>