<svg xmlns="http://www.w3.org/2000/svg" xmlns:xlink="http://www.w3.org/1999/xlink" width="1080" zoomAndPan="magnify" viewBox="0 0 810 809.999993" height="1080" preserveAspectRatio="xMidYMid meet" version="1.0"><defs><clipPath id="19004c30c0"><path d="M 550 655 L 670 655 L 670 771.636719 L 550 771.636719 Z M 550 655 " clip-rule="nonzero"/></clipPath><clipPath id="4f9546eca0"><path d="M 152 38.136719 L 658 38.136719 L 658 543 L 152 543 Z M 152 38.136719 " clip-rule="nonzero"/></clipPath></defs><path fill="#fffcfa" d="M 24.253906 765.304688 L 24.253906 624.070312 C 24.253906 622.792969 25.253906 621.792969 26.53125 621.792969 L 50.457031 621.792969 C 51.679688 621.792969 52.625 622.792969 52.625 623.957031 L 52.625 765.363281 C 52.625 766.582031 51.625 767.636719 50.347656 767.636719 L 26.53125 767.636719 C 25.253906 767.636719 24.253906 766.640625 24.253906 765.363281 Z M 117.855469 766.472656 L 68.390625 703.292969 C 66.503906 700.90625 63.617188 699.460938 60.5625 699.460938 L 44.851562 699.460938 L 107.585938 622.460938 C 107.917969 622.015625 108.476562 621.792969 109.03125 621.792969 L 139.507812 621.792969 C 140.007812 621.792969 140.285156 622.347656 139.953125 622.738281 L 83.601562 691.691406 L 82.824219 677.699219 L 149.667969 762.917969 C 151.167969 764.808594 149.78125 767.582031 147.394531 767.582031 L 120.246094 767.582031 C 119.355469 767.582031 118.46875 767.136719 117.914062 766.417969 Z M 117.855469 766.472656 " fill-opacity="1" fill-rule="nonzero"/><path fill="#fffcfa" d="M 158.273438 765.140625 L 158.273438 659.824219 C 158.273438 659.433594 158.605469 659.15625 158.941406 659.15625 L 179.539062 659.15625 C 179.925781 659.15625 180.203125 659.488281 180.203125 659.824219 L 180.203125 704.957031 C 180.203125 705.347656 179.871094 705.625 179.539062 705.625 L 178.925781 705.625 C 178.539062 705.625 178.203125 705.292969 178.203125 704.902344 C 178.261719 694.300781 179.648438 685.359375 182.425781 678.144531 C 185.199219 670.761719 189.363281 665.152344 194.914062 661.378906 C 200.46875 657.601562 207.351562 655.660156 215.570312 655.660156 L 216.789062 655.660156 C 225.171875 655.660156 232.113281 657.546875 237.664062 661.378906 C 243.214844 665.152344 247.324219 670.761719 250.042969 678.144531 C 252.710938 685.359375 254.097656 694.300781 254.152344 704.902344 C 254.152344 705.292969 253.820312 705.625 253.429688 705.625 L 247.824219 705.625 C 247.4375 705.625 247.101562 705.292969 247.101562 704.902344 C 247.15625 694.300781 248.601562 685.359375 251.378906 678.144531 C 254.265625 670.761719 258.429688 665.152344 263.980469 661.378906 C 269.53125 657.601562 276.414062 655.660156 284.632812 655.660156 L 285.855469 655.660156 C 294.238281 655.660156 301.230469 657.546875 306.839844 661.378906 C 312.445312 665.152344 316.667969 670.761719 319.496094 678.144531 C 322.382812 685.527344 323.773438 694.6875 323.773438 705.625 L 323.773438 766.859375 C 323.773438 767.25 323.4375 767.527344 323.105469 767.527344 L 297.625 767.527344 C 296.734375 767.527344 296.011719 766.804688 296.011719 765.917969 L 296.011719 703.238281 C 296.011719 696.296875 294.238281 690.800781 290.738281 686.75 C 287.1875 682.695312 282.300781 680.640625 276.082031 680.640625 C 269.863281 680.640625 264.535156 682.75 260.703125 686.914062 C 256.816406 691.132812 254.929688 696.796875 254.929688 704.015625 L 254.929688 765.75 C 254.929688 766.75 254.152344 767.527344 253.152344 767.527344 L 228.949219 767.527344 C 227.949219 767.527344 227.171875 766.695312 227.171875 765.75 L 227.171875 703.238281 C 227.171875 696.296875 225.394531 690.800781 221.898438 686.75 C 218.34375 682.695312 213.457031 680.640625 207.242188 680.640625 C 201.023438 680.640625 195.691406 682.75 191.863281 686.914062 C 187.976562 691.132812 186.089844 696.796875 186.089844 704.015625 L 186.089844 765.585938 C 186.089844 766.640625 185.199219 767.527344 184.144531 767.527344 L 160.773438 767.527344 C 159.441406 767.527344 158.328125 766.417969 158.328125 765.085938 Z M 158.273438 765.140625 " fill-opacity="1" fill-rule="nonzero"/><path fill="#fffcfa" d="M 363.632812 646.164062 C 358.195312 646.164062 354.140625 644.777344 351.53125 641.945312 C 348.921875 639.171875 347.644531 635.507812 347.644531 630.953125 C 347.644531 626.402344 348.921875 622.957031 351.53125 620.183594 C 354.140625 617.40625 358.136719 615.964844 363.632812 615.964844 C 369.128906 615.964844 373.070312 617.351562 375.625 620.183594 C 378.179688 622.957031 379.402344 626.566406 379.402344 630.953125 C 379.402344 635.339844 378.125 639.171875 375.625 641.945312 C 373.070312 644.722656 369.074219 646.164062 363.632812 646.164062 Z M 349.644531 764.585938 L 349.644531 662.097656 C 349.644531 660.433594 350.976562 659.101562 352.640625 659.101562 L 374.40625 659.101562 C 376.070312 659.101562 377.402344 660.433594 377.402344 662.097656 L 377.402344 764.585938 C 377.402344 766.25 376.070312 767.582031 374.40625 767.582031 L 352.640625 767.582031 C 350.976562 767.582031 349.644531 766.25 349.644531 764.585938 Z M 349.644531 764.585938 " fill-opacity="1" fill-rule="nonzero"/><path fill="#fffcfa" d="M 401.609375 640.558594 L 401.609375 623.792969 C 401.609375 622.679688 402.496094 621.792969 403.605469 621.792969 L 427.367188 621.792969 C 428.480469 621.792969 429.367188 622.679688 429.367188 623.792969 L 429.367188 640.558594 C 429.367188 641.667969 428.480469 642.558594 427.367188 642.558594 L 403.605469 642.558594 C 402.496094 642.558594 401.609375 641.667969 401.609375 640.558594 Z M 401.609375 765.585938 L 401.609375 623.792969 C 401.609375 622.679688 402.496094 621.792969 403.605469 621.792969 L 427.367188 621.792969 C 428.480469 621.792969 429.367188 622.679688 429.367188 623.792969 L 429.367188 765.585938 C 429.367188 766.695312 428.480469 767.582031 427.367188 767.582031 L 403.605469 767.582031 C 402.496094 767.582031 401.609375 766.695312 401.609375 765.585938 Z M 401.609375 765.585938 " fill-opacity="1" fill-rule="nonzero"/><path fill="#fffcfa" d="M 454.460938 640.890625 L 454.460938 623.457031 C 454.460938 622.515625 455.183594 621.792969 456.125 621.792969 L 479.445312 621.792969 C 480.386719 621.792969 481.109375 622.515625 481.109375 623.457031 L 481.109375 640.890625 C 481.109375 641.835938 480.386719 642.558594 479.445312 642.558594 L 456.125 642.558594 C 455.183594 642.558594 454.460938 641.835938 454.460938 640.890625 Z M 453.296875 765.917969 L 453.296875 623.402344 C 453.296875 622.460938 454.015625 621.738281 454.960938 621.738281 L 479.386719 621.738281 C 480.332031 621.738281 481.054688 622.460938 481.054688 623.402344 L 481.054688 765.917969 C 481.054688 766.859375 480.332031 767.582031 479.386719 767.582031 L 454.960938 767.582031 C 454.015625 767.582031 453.296875 766.859375 453.296875 765.917969 Z M 453.296875 765.917969 " fill-opacity="1" fill-rule="nonzero"/><path fill="#fffcfa" d="M 520.804688 646.164062 C 515.363281 646.164062 511.3125 644.777344 508.703125 641.945312 C 506.09375 639.171875 504.816406 635.507812 504.816406 630.953125 C 504.816406 626.402344 506.09375 622.957031 508.703125 620.183594 C 511.3125 617.40625 515.308594 615.964844 520.804688 615.964844 C 526.300781 615.964844 530.242188 617.351562 532.796875 620.183594 C 535.351562 622.957031 536.570312 626.566406 536.570312 630.953125 C 536.570312 635.339844 535.292969 639.171875 532.796875 641.945312 C 530.242188 644.722656 526.246094 646.164062 520.804688 646.164062 Z M 506.871094 678.308594 L 506.871094 660.765625 C 506.871094 659.878906 507.589844 659.15625 508.480469 659.15625 L 533.019531 659.15625 C 533.90625 659.15625 534.628906 659.878906 534.628906 660.765625 L 534.628906 678.308594 C 534.628906 679.199219 533.90625 679.921875 533.019531 679.921875 L 508.480469 679.921875 C 507.589844 679.921875 506.871094 679.199219 506.871094 678.308594 Z M 506.871094 765.972656 L 506.871094 660.710938 C 506.871094 659.824219 507.589844 659.101562 508.480469 659.101562 L 533.019531 659.101562 C 533.90625 659.101562 534.628906 659.824219 534.628906 660.710938 L 534.628906 765.972656 C 534.628906 766.859375 533.90625 767.582031 533.019531 767.582031 L 508.480469 767.582031 C 507.589844 767.582031 506.871094 766.859375 506.871094 765.972656 Z M 506.871094 765.972656 " fill-opacity="1" fill-rule="nonzero"/><path fill="#fffcfa" d="M 685.804688 766.582031 L 685.804688 660.101562 C 685.804688 659.546875 686.246094 659.101562 686.804688 659.101562 L 706.789062 659.101562 C 707.34375 659.101562 707.789062 659.546875 707.789062 660.101562 L 707.789062 704.679688 C 707.789062 705.234375 707.34375 705.679688 706.789062 705.679688 C 706.234375 705.679688 705.789062 705.234375 705.789062 704.679688 C 705.902344 694.078125 707.34375 685.195312 710.175781 678.03125 C 713.117188 670.648438 717.449219 665.097656 723.277344 661.378906 C 729.050781 657.65625 736.269531 655.769531 744.929688 655.769531 L 746.152344 655.769531 C 759.085938 655.769531 768.859375 659.933594 775.519531 668.261719 C 782.183594 676.589844 785.511719 689.023438 785.511719 705.515625 L 785.511719 766.640625 C 785.511719 767.195312 785.070312 767.636719 784.515625 767.636719 L 758.753906 767.636719 C 758.199219 767.636719 757.753906 767.195312 757.753906 766.640625 L 757.753906 703.125 C 757.753906 696.464844 755.8125 691.078125 751.980469 686.972656 C 748.09375 682.863281 742.929688 680.753906 736.378906 680.753906 C 729.828125 680.753906 724.109375 682.863281 719.890625 687.136719 C 715.671875 691.414062 713.617188 697.019531 713.617188 703.902344 L 713.617188 766.640625 C 713.617188 767.195312 713.171875 767.636719 712.617188 767.636719 L 686.859375 767.636719 C 686.304688 767.636719 685.859375 767.195312 685.859375 766.640625 Z M 685.804688 766.582031 " fill-opacity="1" fill-rule="nonzero"/><g clip-path="url(#19004c30c0)"><path fill="#fffcfa" d="M 599.75 655.601562 C 548.285156 661.765625 531.296875 734.050781 575.269531 761.863281 C 609.1875 783.351562 660.875 768.136719 668.203125 726.332031 C 675.753906 683.640625 642.386719 650.441406 599.75 655.546875 Z M 631.339844 735.9375 C 630.507812 736.9375 625.621094 742.488281 624.402344 741.15625 C 626.398438 735.882812 629.839844 732.050781 630.839844 726.109375 C 632.5625 716.117188 628.730469 705.015625 619.460938 699.019531 C 601.636719 687.46875 588.09375 707.179688 602.75 720.113281 C 606.914062 723.777344 614.183594 725 613.019531 733.605469 C 610.742188 750.039062 582.207031 740.101562 580.265625 722.003906 C 578.488281 705.902344 584.039062 688.804688 600.363281 682.863281 C 630.453125 671.925781 650.828125 712.398438 631.339844 735.882812 Z M 631.339844 735.9375 " fill-opacity="1" fill-rule="nonzero"/></g><g clip-path="url(#4f9546eca0)"><path fill="#fffcfa" d="M 404.882812 38.136719 C 265.480469 38.136719 152.5 151.113281 152.5 290.519531 C 152.5 303.789062 153.554688 316.835938 155.5 329.546875 C 154.941406 215.570312 243.105469 109.03125 376.125 111.472656 C 378.570312 109.917969 371.183594 65.839844 376.847656 57.121094 C 385.007812 44.574219 414.988281 58.34375 426.703125 63.007812 C 512.976562 97.429688 599.085938 177.597656 608.632812 266.203125 C 609.855469 277.472656 614.074219 297.457031 596.53125 297.457031 C 546.898438 289.910156 497.152344 281.914062 450.628906 263.261719 L 474.113281 277.972656 C 509.203125 294.792969 548.453125 298.457031 585.984375 307.339844 C 570.4375 315.722656 549.175781 319.609375 530.964844 321.332031 C 493.046875 324.941406 453.796875 322.609375 420.097656 303.898438 C 422.371094 342.707031 471.449219 335.15625 494.65625 355.253906 C 504.980469 364.191406 514.085938 385.289062 507.871094 397.113281 C 497.988281 415.933594 495.042969 384.511719 492.269531 380.011719 C 490.878906 377.738281 480.445312 367.410156 478.390625 368.742188 C 487.605469 376.238281 491.4375 408.273438 477.277344 409.660156 C 469.339844 410.4375 472.003906 402.5 470.449219 398.167969 C 455.347656 357.363281 388.394531 357.640625 370.242188 323.550781 C 364.1875 312.171875 362.246094 296.738281 365.246094 284.632812 C 348.976562 294.460938 354.917969 313.449219 356.859375 328.492188 C 336.097656 319.386719 324.328125 291.074219 300.066406 288.1875 C 280.523438 285.800781 255.484375 299.179688 245.992188 314.335938 C 270.53125 299.511719 311.058594 290.242188 326.769531 321.664062 C 341.316406 350.867188 314.722656 359.195312 298.34375 375.074219 C 291.570312 381.625 284.1875 399 276.027344 397.835938 C 265.144531 396.28125 269.253906 381.347656 270.199219 374.238281 L 258.371094 389.007812 C 234.667969 446.136719 293.183594 503.929688 357.195312 496.824219 C 427.035156 489.050781 420.652344 392.839844 357.972656 402.441406 C 324.160156 407.605469 325.4375 446.855469 357.082031 446.855469 C 373.238281 446.855469 373.460938 431.757812 374.960938 430.757812 C 377.070312 429.367188 383.898438 432.753906 385.339844 436.140625 C 393.78125 455.40625 371.628906 474.503906 350.976562 474.117188 C 273.308594 472.726562 285.410156 366.300781 368.851562 370.296875 C 472.558594 375.238281 477.277344 521.027344 362.46875 533.6875 C 355.085938 534.519531 347.867188 534.796875 340.761719 534.6875 C 361.191406 540.015625 382.675781 542.902344 404.773438 542.902344 C 544.179688 542.902344 657.15625 429.925781 657.15625 290.519531 C 657.15625 151.113281 544.289062 38.136719 404.882812 38.136719 Z M 404.882812 38.136719 " fill-opacity="1" fill-rule="nonzero"/></g></svg>