<svg xmlns="http://www.w3.org/2000/svg" xmlns:xlink="http://www.w3.org/1999/xlink" width="32" height="32" viewBox="0 0 810 810" fill="none">
  <defs>
    <clipPath id="dcc032a399">
      <path d="M 97.652344 38.316406 L 712.652344 38.316406 L 712.652344 771.816406 L 97.652344 771.816406 Z M 97.652344 38.316406 " clip-rule="nonzero"/>
    </clipPath>
  </defs>
  <g clip-path="url(#dcc032a399)">
    <path fill="#fe6634" d="M 707.300781 310.890625 C 676.738281 180.722656 543.25 79.753906 418.640625 47.101562 C 401.71875 42.6875 358.082031 28.613281 349.425781 49.15625 C 343.4375 63.359375 362.191406 127.570312 359.175781 130.414062 C 147.640625 159.609375 47.867188 395.164062 122.195312 584.605469 C 169.636719 705.464844 288.914062 801.667969 424.238281 763.292969 C 578.492188 719.539062 543.121094 503.085938 400.582031 518.164062 C 285.9375 530.273438 290.441406 691.652344 396.777344 676.921875 C 425.023438 672.988281 451.476562 639.722656 436.128906 612.839844 C 433.460938 608.164062 423.492188 604.535156 420.871094 607.070312 C 418.988281 608.90625 421.699219 631.503906 399.664062 634.957031 C 356.464844 641.777344 346.933594 583.511719 392.054688 568.476562 C 475.699219 540.589844 503.507812 682.734375 409.675781 709.484375 C 323.671875 734.003906 232.335938 660.398438 253.367188 570.050781 L 266.570312 545.441406 C 266.746094 556.238281 264.078125 579.402344 279.207031 579.359375 C 290.660156 579.359375 297.261719 551.820312 305.222656 540.589844 C 324.460938 513.355469 359.132812 495.171875 333.464844 454.785156 C 305.832031 411.292969 252.316406 433.9375 221.753906 461.34375 C 231.722656 436.6875 263.246094 411.382812 290.441406 410.636719 C 324.152344 409.765625 345.839844 449.410156 375.964844 458.5 C 370.371094 436.425781 358.476562 409.457031 378.765625 391.230469 C 377.058594 409.9375 382.785156 432.582031 393.28125 448.230469 C 424.804688 495.171875 516.144531 480.179688 544.824219 537.835938 C 547.886719 543.953125 545.789062 556.410156 556.457031 553.484375 C 575.519531 548.324219 563.890625 501.378906 549.855469 492.15625 C 552.390625 489.796875 568.65625 502.910156 571.015625 506.011719 C 575.652344 512.046875 585.925781 558.335938 595.675781 528.132812 C 601.796875 509.074219 585.183594 479.613281 569.3125 468.511719 C 533.632812 443.550781 468.089844 465.449219 457.292969 408.058594 C 507.046875 428.648438 561.132812 423.621094 612.160156 410.027344 C 636.644531 403.511719 664.890625 393.109375 684.476562 377.199219 C 631.484375 372.128906 577.179688 375.1875 525.9375 357.660156 L 491.003906 340.789062 C 558.160156 358.578125 627.726562 359.671875 696.941406 360.195312 C 720.898438 356.4375 711.195312 327.5 707.300781 310.933594 Z M 707.300781 310.890625 Z" fill-opacity="1" fill-rule="nonzero"/>
  </g>
</svg>
